<?xml version="1.0" encoding="UTF-8"?>
<svg id="Ebene_2" data-name="Ebene 2" xmlns="http://www.w3.org/2000/svg" viewBox="0 0 965.53 965.57">
  <defs>
    <style>
      .cls-1 {
        fill: #8f241f;
      }

      .cls-1, .cls-2, .cls-3, .cls-4, .cls-5, .cls-6, .cls-7, .cls-8, .cls-9, .cls-10, .cls-11, .cls-12, .cls-13, .cls-14, .cls-15, .cls-16, .cls-17, .cls-18, .cls-19, .cls-20, .cls-21, .cls-22, .cls-23 {
        stroke-width: 0px;
      }

      .cls-2 {
        fill: #2b2a29;
      }

      .cls-3 {
        fill: #90241f;
      }

      .cls-4 {
        fill: #de1e24;
      }

      .cls-5 {
        fill: #8e231f;
      }

      .cls-6 {
        fill: #2c2a29;
      }

      .cls-7 {
        fill: #f5f1e8;
      }

      .cls-8 {
        fill: #91251f;
      }

      .cls-9 {
        fill: #f0e6da;
      }

      .cls-10 {
        fill: #f2b640;
      }

      .cls-11 {
        fill: #e02127;
      }

      .cls-12 {
        fill: #faf8f5;
      }

      .cls-13 {
        fill: #e22026;
      }

      .cls-14 {
        fill: #4c394b;
      }

      .cls-15 {
        fill: #f8dc4f;
      }

      .cls-16 {
        fill: #2d2b2a;
      }

      .cls-17 {
        fill: #e01e24;
      }

      .cls-18 {
        fill: #f8d341;
      }

      .cls-19 {
        fill: #fbfaf7;
      }

      .cls-20 {
        fill: #f5c52c;
      }

      .cls-21 {
        fill: #2d2c2b;
      }

      .cls-22 {
        fill: #efe5d9;
      }

      .cls-23 {
        fill: #e32228;
      }
    </style>
  </defs>
  <g id="Ebene_1-2" data-name="Ebene 1">
    <g>
      <path class="cls-17" d="M451.88,965.57c-4.76-.64-9.52-1.25-14.27-1.91-16.67-2.33-33.5-3.92-49.98-7.22-17.57-3.52-34.97-8.12-52.15-13.25-13.4-4-26.72-8.72-39.38-14.61-19.81-9.21-39.04-19.67-58.5-29.64-1.09-.56-2-1.48-2.96-2.2,6.56-5.32,13.21-10.17,19.23-15.71,13.17-12.13,26.59-24.08,38.82-37.12,11.3-12.06,22.13-24.8,31.39-38.44,10.06-14.83,18.98-30.61,26.75-46.76,10.65-22.12,17.89-45.59,22.83-69.71,2.2-10.73,4.49-21.45,6.62-32.19.58-2.92.74-5.92,1.09-8.89,1.35.57,2.9.89,4.02,1.76,2.91,2.26,5.63,4.76,8.42,7.17,2.26,8.58,4.51,17.17,6.77,25.75-.93,3.88-1.92,7.75-2.79,11.64-8.15,36.8-20.77,71.88-39.97,104.47-20.05,34.02-45.89,63.14-75.15,89.39-1.53,1.37-3.01,2.81-4.6,4.3,51.2,28.09,142.26,57.39,249.26,46.99,56.28-5.47,109.89-20.42,160.66-46.65-.97-1.11-1.46-1.72-2.01-2.27-14.71-14.84-30.07-29.09-43.98-44.64-21.59-24.13-38.3-51.56-51.34-81.24-11.63-26.47-19.34-54.12-25.18-82.34,2.03-8.23,4.07-16.46,6.11-24.69,4.19-3.52,8.38-7.04,12.56-10.56,4.5,27.52,9.43,54.95,18.49,81.43,8.11,23.72,18.7,46.2,32.18,67.45,11.03,17.4,23.69,33.45,37.58,48.47,10.73,11.6,22.68,22.1,34.38,32.76,6.4,5.84,13.37,11.06,20.17,16.44,3.99,3.16,3.89,4.28-.6,6.7-10.44,5.63-20.57,11.89-31.27,16.97-25.37,12.05-51.24,22.98-78.54,29.92-17.09,4.34-34.29,8.51-51.65,11.5-16.61,2.86-33.5,4.1-50.27,6.1-.35.04-.65.55-.98.84h-61.8Z"/>
      <path class="cls-17" d="M137.97,657.63c-11.09,10.29-22.75,20.05-33.13,31.02-11.71,12.38-22.26,25.86-33.34,38.84-.81.95-1.82,1.73-3.42,3.23-2.78-4.75-5.68-8.98-7.86-13.55-9.72-20.43-20.23-40.57-28.53-61.57-7.37-18.66-12.73-38.17-18.01-57.57-3.78-13.86-6.35-28.09-8.72-42.29-1.66-9.96-2.02-20.14-3.07-30.21-.48-4.61-1.26-9.19-1.9-13.79,0-19.31,0-38.62,0-57.93.63-4.76,1.23-9.52,1.91-14.27,2.54-17.75,4.83-35.54,7.74-53.23,5.32-32.39,15.78-63.35,28.53-93.42,7.98-18.83,18.25-36.69,27.36-55.05,1.78-3.6,3.47-2.56,5.33-.41,5.58,6.48,11.04,13.07,16.64,19.53,6.54,7.54,12.98,15.2,19.86,22.43,6.14,6.46,12.47,12.81,19.31,18.5,12.48,10.39,25.18,20.56,38.23,30.22,7.34,5.44,15.57,9.68,23.4,14.46-1.47.37-2.92.92-4.41,1.07-3.49.35-7.04.22-10.49.79-7.22,1.18-14.39,2.67-21.58,4.04-29.5-20.12-55.69-43.93-79.14-71.77-32.01,65.03-48.35,132.95-48.49,204.65-.14,72.37,15.89,141,48.32,206.33,5.75-6.18,10.98-12,16.42-17.63,19.61-20.31,40.73-38.82,64.51-54.16-.64,2.92-.92,5.98-2,8.72-4.35,11.05-8.95,22.01-13.46,33Z"/>
      <path class="cls-17" d="M340.91,185.26c-6.11-9.45-11.87-19.16-18.42-28.29-6.68-9.32-13.78-18.39-21.36-26.99-8.36-9.48-17.04-18.77-26.36-27.3-12.46-11.42-25.67-22.03-38.56-32.98-.49-.42-1.05-.76-2.2-1.6,51.17-29.42,104.55-50.53,162.21-60.58,57.79-10.07,115.47-10.06,173.18.22,57.42,10.22,110.97,30.83,161.7,60.34-5.06,4.34-9.92,8.58-14.86,12.73-5.43,4.56-11.16,8.81-16.37,13.61-8.71,8.02-17.52,16.01-25.58,24.67-18.38,19.73-35.1,40.77-48.18,64.49-.29.52-.32,1.18-.47,1.78-.73-.37-1.73-.56-2.16-1.15-4.82-6.78-9.56-13.63-14.32-20.46.56-.78,1.16-1.54,1.66-2.36,17.52-28.39,38.89-53.58,63.27-76.27,4.55-4.23,9.09-8.47,13.7-12.77-35.08-24.9-138.93-49.57-205.22-48.89-71.75.73-140.02,16.11-204.86,48.6,4.02,3.68,7.57,6.9,11.08,10.15,26.18,24.3,49.55,50.93,67.75,81.84-2.9,3.96-5.8,7.92-8.71,11.88-2.3,3.12-4.61,6.23-6.92,9.35Z"/>
      <path class="cls-17" d="M778.39,341.95c8.88-5.59,18.22-10.58,26.53-16.92,13.31-10.15,26.36-20.72,38.71-32,11.1-10.14,21.32-21.28,31.53-32.34,7.28-7.88,13.91-16.36,20.85-24.56.41-.48.93-.87,1.8-1.66,4.61,8.17,9.42,16.02,13.56,24.2,5.47,10.83,10.83,21.76,15.48,32.97,5.01,12.09,9.43,24.44,13.58,36.85,4.01,11.98,7.74,24.08,10.89,36.31,3.25,12.57,6.2,25.27,8.29,38.08,2.26,13.85,4.21,27.85,4.8,41.85,1,23.71,1.4,47.48.92,71.2-.25,12.22-3.17,24.36-4.5,36.58-2.92,26.62-9.89,52.35-17.67,77.82-4.23,13.86-9.75,27.38-15.37,40.76-4.92,11.71-10.65,23.08-16.29,34.46-3.75,7.58-8.05,14.88-11.96,22.38-1.39,2.66-2.66,2.81-4.43.49-16.26-21.3-34.45-40.88-53.82-59.35-4.14-3.95-9.11-7.03-13.7-10.51-.39-1.04-.77-2.09-1.16-3.13-5.12-13.44-10.23-26.89-15.35-40.33.71.37,1.47.67,2.13,1.1,26,17.24,49.16,37.77,70.28,60.68,3.22,3.49,6.41,7,9.96,10.89,39.45-79.91,54.45-163.52,46.01-251.36-5.35-55.68-20.98-108.44-46.64-159.13-1.55,1.13-2.32,2.77-3.49,4.03-7.08,7.67-14.09,15.44-21.44,22.85-16.46,16.6-34.67,31.13-53.89,44.4-11.69-1.64-23.38-3.26-35.06-4.98-.26-.04-.36-1.09-.54-1.67Z"/>
      <path class="cls-8" d="M151.81,348.49c7.19-1.36,14.36-2.86,21.58-4.04,3.45-.56,7-.44,10.49-.79,1.49-.15,2.94-.7,4.41-1.07,2.31.39,4.61.89,6.93,1.14,9.4,1.01,18.8,1.96,28.21,2.87,1.43.14,2.89-.06,4.33-.1-.19,1.7-.37,3.4-.56,5.1-2.12-.36-4.25-.72-6.34-1.07-1.73,7.12.11,11.44,5.9,14.51.28,1.62.57,3.25.85,4.87-2.21-.21-4.42-.41-6.63-.64-10.74-1.08-21.47-2.23-32.21-3.2-1.45-.13-2.99.6-4.48.93-21.83.04-41.17,7.24-57.91,21.03-7.66,6.31-9.55,14.17-6.3,21.91,4.73,11.27,14.72,14.18,25.47,14.8,20.16,1.16,39.37-3.66,58.14-10.51,13.52-5.59,27.04-11.18,40.57-16.77.77.21,1.68.23,2.27.67,8.5,6.27,18.19,8.43,28.53,8.48,4.52,5.56,12.67,3.7,16.63-3.8l-.11-.36c1.12,1.47,2.24,2.94,3.36,4.42-4.74,6.71-9.48,13.41-14.21,20.11-.75-2.24-1.5-4.47-2.25-6.71,1.84-1.62,3.68-3.24,6.26-5.51-4.21-.65-6.97-1.07-9.72-1.5-1.12-1.28-2.24-2.57-3.64-4.17-2.34,1.43-4.59,2.8-6.84,4.17-10.02,4.8-20.04,9.59-30.05,14.39-3.5,1.38-6.99,2.77-10.49,4.15-5.45,1.93-10.91,3.87-16.36,5.8-3.24,1.17-6.48,2.35-9.73,3.52-11.97,2.06-23.9,4.39-35.92,6.11-15.6,2.24-30.7.62-44.76-7.2-17.07-9.49-28.29-34.32-17.22-54.99,6.23-11.63,15.82-19.73,27.25-25.65,7.94-4.11,16.34-7.31,24.53-10.91ZM101.68,389.25c-.43,6.21-1.08,12.18-1.19,18.15-.08,4.14,2.08,5.04,5.53,2.46,5.83-4.37,9.49-10.08,10.24-17.48-2.37-.43-4.57-.79-6.75-1.25-2.17-.46-4.31-1.03-7.83-1.88ZM247.5,416.86c2.37-1.19,5.3-2.65,8.23-4.11-4.79-8.74-13.44-11.1-17.67-7.24,2.98,3.59,6.03,7.25,9.43,11.35ZM189.81,347.69c-.49,9.07,6.37,15.69,13.04,13.73-.72-3.76-1.26-7.5-2.24-11.13-.28-1.04-1.74-2.34-2.8-2.49-2.63-.36-5.35-.12-7.99-.12ZM124.91,382.66c-4.11-2.23-8.23-4.46-12.9-6.99-2.2,2.94-4.5,6-6.91,9.23,8.36,3.87,15.97,2.79,19.81-2.24ZM109.28,427.53c5.52-5.04,7.83-13.41,5.24-18.73-2.15,1.64-4.19,3.4-6.42,4.87-5.76,3.8-5.81,3.76-1.9,9.7.94,1.43,2.03,2.75,3.08,4.16ZM139.33,442.53c.74-8.65-4.15-15.84-9.93-16.11-.29,3.45-.85,6.9-.72,10.32.06,1.48,1.23,3.7,2.47,4.2,2.5,1.02,5.39,1.11,8.18,1.59ZM175.3,362.43c-2.26-4.34-4.38-8.41-6.65-12.77-1.86.3-4.07.55-6.24,1.03-3.09.69-3.89,2.28-2.14,5.21,3.28,5.48,8.63,7.93,15.02,6.53ZM136.9,374.96c-2.21-1.27-4.13-2.11-5.7-3.37-1.6-1.28-2.72-3.16-4.33-4.42-.78-.61-2.51-.95-3.24-.5-2.5,1.54-4.75,3.5-7.12,5.31,5.5,6.26,12.95,7.33,20.39,2.98ZM189.83,361.65c-1.16-2.19-2.5-4.19-3.31-6.39-.86-2.34-1.21-4.87-1.86-7.68-3.57.47-6.97.91-10.38,1.36,1.48,8.55,7.41,13.42,15.55,12.7ZM233.65,422.87c1.89-.78,4.18-1.3,5.88-2.6.92-.7,1.58-3.17,1.05-4.08-2.59-4.41-11.32-8.75-16.86-3.75,3.14,3.29,6.28,6.59,9.94,10.43ZM119.59,419.03c-1.11,2.38-1.94,4.43-3,6.36-1.05,1.91-2.34,3.69-3.86,6.05,2.73,1.88,5.2,3.88,7.96,5.31.8.41,3.19-.47,3.57-1.32,2.02-4.55-.31-12.63-4.68-16.39ZM217.53,363.47c-.97-4.44-1.95-8.91-3.05-13.94-2.92-.31-6.13-.65-9.37-1-.63,9.23,5.24,15.75,12.42,14.93ZM153.28,353.39c-1.99.57-3.98,1.07-5.92,1.73-1.03.35-1.97.98-2.92,1.47,2.88,8.16,8.79,11.05,17.48,8.54-2.79-3.8-5.55-7.55-8.63-11.74ZM155.2,429.91c1.78,4.46,3.45,8.66,5.34,13.38,3.07-.42,6.45-.88,9.85-1.34-1.38-8.48-6.68-12.67-15.19-12.04ZM148.9,369.58c-3.41-3.68-6.63-7.16-10.28-11.11-2.52,1.27-5.55,2.79-8.61,4.33,4.32,7.64,11.21,9.92,18.89,6.78ZM199.97,435.18c-2.81-8.81-9.94-12.37-16.97-9.36,2.11,3.28,4.15,6.66,6.44,9.85.61.86,2.11,1.71,3.05,1.57,2.45-.37,4.82-1.29,7.48-2.07ZM155.2,443c-1.4-8.94-7.66-14.76-13.55-13.52,1,4.42,2,8.84,3.06,13.52h10.5ZM185.29,439.07c-2.09-8.69-8.35-12.62-16.01-10.53,2.21,4.13,4.41,8.24,6.77,12.64,2.82-.64,5.88-1.34,9.25-2.11ZM196.63,421.75c2.46,3.4,4.68,6.64,7.11,9.71.63.8,2.06,1.69,2.88,1.5,2.58-.6,5.04-1.7,7.54-2.61-3.09-8.37-9.01-11.11-17.53-8.6ZM210.41,417.31c3.05,3.72,5.93,7.24,9.16,11.17,2.41-.94,5.31-2.08,8.17-3.2-1.95-7.97-9.48-11.23-17.33-7.96Z"/>
      <path class="cls-3" d="M778.39,341.95c.18.58.28,1.63.54,1.67,11.68,1.71,23.37,3.34,35.06,4.98,1.75.72,3.47,1.54,5.26,2.16,14.59,5.05,28.09,11.92,38.9,23.27,22.65,23.78,11.42,58.63-16.45,69.4-17.01,6.58-34.33,5.15-51.7,2.18-7.4-1.27-14.74-2.93-22.11-4.41-3.32-1.22-6.64-2.44-9.96-3.65-5.46-1.95-10.92-3.89-16.38-5.84-3.87-1.57-7.73-3.15-11.6-4.72-9.63-4.62-19.27-9.25-28.9-13.87-2.17-1.37-4.34-2.73-6.48-4.08-1.53,1.76-2.64,3.04-3.75,4.32-2.96.43-5.92.86-8.88,1.29-.1.4-.2.8-.31,1.19,1.97,1.39,3.94,2.79,5.91,4.18-.68,2.33-1.36,4.67-2.04,7-4.91-7.03-9.82-14.06-14.73-21.09,1.06-1.15,2.12-2.29,3.18-3.44,0,0-.06.41-.06.41l1.09.68v-.05c2.75,6.85,11.49,8.49,16.31,3.08,2.83-.09,5.65-.17,8.48-.26,1.97,1.41,3.93,2.81,5.86,4.19,2.62-3.01,4.77-5.49,6.92-7.97l-.06.06c.38-.27.76-.53,1.15-.8,2.86-1.38,5.72-2.77,8.58-4.15,12.43,5.3,24.85,10.62,37.31,15.85.7.29,1.68-.08,2.53-.15,1.47.88,2.84,2.09,4.43,2.58,5.67,1.73,11.37,3.39,17.14,4.77,14.42,3.44,28.99,6.05,43.79,3.06,9.51-1.92,16.97-6.75,19.38-17.06,2.29-9.81-3.45-16.01-10.24-21.09-16.12-12.07-34.42-18.32-54.61-18.82-3.91-.19-7.87-.83-11.73-.47-10.59.99-21.15,2.4-31.72,3.64.2-1.63.41-3.26.61-4.89,5.92-3.69,7.98-8.16,6.43-14.6-2.26.33-4.56.66-6.86.99-.35-1.71-.7-3.41-1.05-5.12,5.72-.56,11.45-1.09,17.17-1.67,5.9-.6,11.81-1.24,17.7-1.9,1.97-.22,3.92-.55,5.89-.82ZM864.32,412.06c2.72-9.06,2.25-15.22-1.58-22.22-4.44.87-8.88,1.75-13.39,2.64,2.26,8.69,5.84,16.19,14.97,19.58ZM827.15,358.43c-3.83,4.26-6.98,7.76-10.07,11.19,6.18,3.64,17.41.08,18.81-7.14-3-1.39-6.12-2.84-8.74-4.06ZM791.5,349.03c-2.61-.47-4.95-1.15-7.29-1.21-1.06-.03-2.73.92-3.14,1.86-1.74,3.97-3.11,8.11-4.61,12.17,8.34.41,14.43-4.58,15.04-12.82ZM748.5,363.65c7.94.64,14.12-7.04,11.3-15.3-2.98.46-6.06.94-8.72,1.36-.94,5.07-1.76,9.52-2.58,13.95ZM837.71,440.2c-.36-5.18-.67-9.66-.99-14.26-7.34,2.48-11.14,9.35-9.54,17.09,3.61-.97,7.19-1.93,10.53-2.83ZM762.73,361.79c8.21.79,14.45-5.77,12.88-13.85h-8.98c-1.34,4.75-2.57,9.13-3.9,13.85ZM846.02,418.65c-5.37,6.02-6.48,13.69-2.77,19.65,3.24-2.23,6.45-4.45,9.52-6.55-2.42-4.7-4.52-8.79-6.74-13.1ZM829.89,375.4c6.35,4.07,14.58,2.66,19.63-3.63-2.32-1.67-4.54-3.49-6.98-4.92-.83-.49-2.59-.47-3.29.1-3.17,2.6-6.12,5.47-9.36,8.45ZM840.7,382.44c5.36,5.79,13.14,6.55,19.93,1.89-2.52-3-4.99-5.95-7.5-8.95-2.38,1.75-4.06,3.23-5.98,4.32-1.89,1.07-4,1.73-6.45,2.75ZM756.41,417.4c-8.08-3.56-17.9.38-18.35,7.99,2.86,1.1,5.78,2.22,8.72,3.35,1.57-2.29,2.76-4.37,4.29-6.16,1.53-1.8,3.39-3.31,5.34-5.18ZM851.46,408.73c-2.1,7.21-.33,13.73,5.42,19.04,2.2-3.66,4.33-7.2,6.27-10.43-4.35-3.2-8-5.89-11.69-8.61ZM741.26,411.45c-6.16-3.59-15.74.17-16.69,8.08,2.7,1.17,5.43,2.35,8.17,3.53-.48-.64-.95-1.29-1.43-1.93,3.36-3.27,6.73-6.55,9.95-9.68ZM783.37,425.55c-9.03-2.24-14.64.75-17.31,9.43,1.3.48,2.66.88,3.93,1.48,3.97,1.87,6.39.87,8.11-3.35,1.1-2.69,3.36-4.9,5.27-7.57ZM780.47,439.02c2.59.63,5.12,1.39,7.72,1.81.85.14,2.33-.33,2.7-.98,2.15-3.76,4.05-7.66,6.03-11.5-7.93-1.71-13.66,1.85-16.44,10.67ZM797.53,349.58c-2.51,4.5-4.84,8.69-7.18,12.88,8.07,1.67,13.94-2,16.56-10.72-3.19-.74-6.36-1.47-9.38-2.16ZM727.62,405.56c-4.98-3.56-14.51-.58-16.8,7.28,2.78,1.39,5.6,2.8,8.43,4.22-.45-.6-.9-1.19-1.36-1.79,3.33-3.32,6.65-6.63,9.73-9.71ZM804.02,365.16c8.04,2.56,15.61-1.16,17.31-9.14-3.05-.97-6.15-1.95-8.63-2.73-3.23,4.41-5.97,8.17-8.68,11.88ZM810.68,430.11c-8.3-1.26-14.53,3.65-14.75,11.84,3.16.45,6.37.91,9.19,1.32,1.98-4.7,3.69-8.75,5.55-13.16ZM769.66,421.4c-5.48-.92-10.24-1.01-14.07,2.64-1.51,1.44-2.68,3.62-3.06,5.64-.12.63,2.81,1.98,4.46,2.74,1.25.58,2.69.75,3.64.99,3.03-4.03,5.8-7.7,9.04-12ZM820.86,442.99c1.32-4.85,2.55-9.37,3.78-13.86-4.27.04-8.8,1.96-10.89,5.43-1.32,2.2-1.72,4.96-2.53,7.47,2.21.41,4.42.92,6.65,1.2,1.05.13,2.16-.16,2.98-.24Z"/>
      <path class="cls-9" d="M609.17,163.74c4.76,6.83,9.49,13.67,14.32,20.46.42.59,1.42.78,2.16,1.15,2.83,6.17,5.61,12.37,8.49,18.51,9.33,19.9,15.71,40.8,20.53,62.17,2.7,11.96,5.01,24.02,7.15,36.1,1.2,6.73,1.69,13.59,2.5,20.39.35,16.41.71,32.82,1.06,49.23-.64,5.44-1.28,10.89-1.92,16.33-.42,1.64-.85,3.27-1.27,4.91-3.94-6.13-8.03-12.17-11.76-18.42-1.57-2.63-2.38-5.71-3.54-8.59,0-9.34,0-18.68.01-28.02-1.34-13.81-1.57-27.85-4.26-41.39-4.44-22.35-9.83-44.57-15.97-66.52-7.91-28.27-20.45-54.55-37.24-78.73-1.12-1.62-1.55-3.71-2.31-5.58,1.54.79,3.32,1.32,4.59,2.42,5.89,5.11,11.64,10.38,17.44,15.59Z"/>
      <path class="cls-9" d="M340.91,185.26c2.31-3.12,4.62-6.23,6.92-9.35,2.91-3.95,5.81-7.92,8.71-11.88,1.11-1.12,2.11-2.38,3.34-3.34,6.82-5.32,13.69-10.57,20.54-15.85-.49.97-.9,1.99-1.48,2.91-5.58,8.96-11.64,17.66-16.71,26.9-14.9,27.12-24.9,56.14-31.83,86.21-5.64,24.42-10.62,48.98-10.86,74.21-.31,1.51-.86,3.01-.87,4.52-.07,9.12-.02,18.23-.01,27.35-5.01,8.38-10.02,16.76-15.02,25.14-.46-1.63-.91-3.25-1.37-4.88-.63-5.15-1.26-10.3-1.9-15.46,0-1.6-.05-3.21,0-4.81.57-14.75,1.15-29.49,1.73-44.24,2.86-26.12,7.84-51.83,14.9-77.14,4.99-17.88,11.64-35.12,19.97-51.71,1.41-2.81,2.63-5.72,3.94-8.59Z"/>
      <path class="cls-5" d="M811.07,615.12c5.12,13.44,10.24,26.89,15.35,40.33.4,1.04.78,2.08,1.16,3.13,5.37,17.85,10.82,35.67,16.06,53.56,1.73,5.89-2.17,13.51-7.16,14.85-7.52,2.02-13.61-1.65-15.9-8.73-8.89-27.5-18-54.94-27.11-82.37-.63-1.9-1.9-3.58-2.88-5.36-.23-1.85-.1-3.84-.75-5.53-2.11-5.48-4.4-10.9-6.83-16.24-2.09-4.6-4.47-9.06-6.72-13.59-.97-2.7-1.7-5.51-2.94-8.08-8.02-16.64-16.16-33.23-24.25-49.83,1.61-.12,3.23-.24,4.84-.36,2.69,1.91,5.16,4.86,8.13,5.5,6.52,1.4,8.71-1.57,6.57-7.69-.21-.6-.28-1.24-.41-1.87.93-.47,1.86-.94,2.78-1.4,2.69,4.9,5.64,9.68,8.01,14.73,10.77,22.94,21.37,45.96,32.03,68.94ZM808.18,658.5c-.14-.12-.29-.24-.43-.37.13.14.26.27.38.41.68,7.42,8.34,10.55,16.48,6.45-.79-2.31-1.6-4.66-2.38-6.93-2.52.19-4.7.44-6.9.5-2.39.07-4.78-.04-7.17-.07ZM773.51,544.81c-3.09.72-5.22,1.43-7.41,1.67-2.25.25-4.55.06-7.54.06,1.48,3.05,2.41,5.07,3.42,7.04,2.84,5.54,8.69,7.82,14.56,5.92,2.27-.74,3.39-1.78,2.24-4.14-1.73-3.56-3.54-7.09-5.27-10.55ZM822.6,707.24c1.22,3.95,2.05,7.83,3.62,11.38,1.69,3.82,6.34,4.91,9.83,2.65,3.82-2.47,3.1-6.08,2.54-9.89-.58-3.97-3.06-3.64-5.87-3.62-3.14.02-6.28-.31-10.12-.52ZM837.12,701.8c-2.08-2.48-3.48-5.78-5.57-6.3-3.81-.96-8.03-.27-12.01-.27,1.68,7.27,8.75,10.64,17.58,6.58ZM779.05,587.97c2.39,6.82,9.09,8.95,17.4,4.94-2.03-2.24-.74-7.17-5.99-6.53-3.71.45-7.41,1.03-11.42,1.59ZM768.25,564.91c1.33,4.95,6.86,7.99,12.94,6.48,1.8-.45,4.74-.62,3.55-3.8-.9-2.4-1.47-5.47-5.5-4.53-3.62.84-7.34,1.26-10.99,1.85ZM799.03,635.04c1.58,5.93,5.43,8.1,13.32,7.01,1.14-.16,3.12-2.1,2.99-2.38-1.02-2.09-2.32-5.47-3.82-5.62-4.09-.41-8.33.56-12.49.99ZM826.67,670.68h-14.35c.32,4.48,3.07,7.51,7.92,7.95,2.53.23,5.16-.67,7.75-1.06-.46-2.39-.91-4.79-1.31-6.9ZM816.36,683.37c.48,5.34,5.75,8.85,12.54,7.87,1.18-.17,3.22-2.07,3.07-2.44-.89-2.14-2.06-5.53-3.58-5.78-3.88-.65-8,.14-12.02.35ZM791.03,581.3c-1.75-2.76-1.12-7.09-5.85-6.59-3.82.4-7.61,1.2-11.39,1.82,1.81,6.43,8.53,8.58,17.24,4.77ZM803.75,610.13c-5.15.41-9.81.78-14.4,1.14,2.53,7.38,9.95,9.79,16.87,4.99-.85-2.11-1.73-4.29-2.46-6.13ZM794.94,623.32c1.21,6.85,10.28,9.59,16.76,4.38-1.7-1.93-3.2-5.2-5.15-5.5-3.62-.56-7.5.62-11.61,1.12ZM803.81,647.03c.58,5.06,6.51,8.93,12.58,7.42,1.29-.32,3.15-2.5,3-3.59-.3-2.2-.46-5.36-4.44-4.77-3.68.54-7.43.65-11.14.94ZM802.1,604.26c-1.93-2.2-3.52-5.65-5.45-5.84-4.01-.41-8.19.9-12.25,1.49,2.25,6.56,9.32,8.79,17.7,4.35Z"/>
      <path class="cls-22" d="M584.17,647c-4.19,3.52-8.38,7.04-12.56,10.56-.32-7.03-.82-14.05-.85-21.08,0-2.15.66-5.08,2.13-6.31,4.28-3.55,9.05-6.55,13.77-9.54,20.14-12.76,41.55-22.74,64.49-29.37,18.18-5.25,36.72-8.44,55.62-8.91,10.06-.25,20.17.33,30.22.99,3.5.23,6.9,1.82,10.35,2.78-1.22.32-2.42.7-3.66.94-13.51,2.56-27.03,5.1-40.55,7.65-15.61,4.06-31.4,7.53-46.77,12.35-16.12,5.06-31.42,12.33-45.62,21.62-9,5.89-17.72,12.2-26.57,18.31Z"/>
      <path class="cls-20" d="M665.39,371.74c-.35-16.41-.71-32.82-1.06-49.23,5.9-2.58,11.64-5.67,17.74-7.63,8.26-2.65,16.64-.81,24.91.89,2.15.44,4.36.56,6.54.82-8.97,12.84-17.87,25.73-26.93,38.51-4.7,6.63-9.67,13.06-14.51,19.58-2.23-.98-4.45-1.97-6.68-2.95Z"/>
      <path class="cls-20" d="M302.11,322.7c-.58,14.75-1.16,29.49-1.73,44.24-.06,1.6,0,3.21,0,4.81-2.29.97-4.57,1.95-6.86,2.92-.58-.53-1.28-.98-1.72-1.62-10.42-14.97-20.82-29.96-31.19-44.97-2.61-3.77-5.08-7.64-7.61-11.47,3.1-.62,6.2-1.24,9.29-1.87,12.8-2.57,24.68-.26,35.74,6.64,1.18.73,2.71.89,4.08,1.31Z"/>
      <path class="cls-17" d="M703.14,594.71c13.52-2.55,27.03-5.08,40.55-7.65,1.23-.23,2.44-.62,3.66-.94,1.68-.34,3.37-.67,5.05-1.01,7.97,3.35,15.94,6.71,23.91,10.06,2.25,4.52,4.63,8.99,6.72,13.59,2.43,5.35,4.72,10.76,6.83,16.24.65,1.69.52,3.68.75,5.53-9.67-5.04-19.15-10.48-29.04-15.04-18.26-8.44-37.13-15.31-56.77-19.88-.58-.14-1.09-.59-1.64-.9Z"/>
      <path class="cls-18" d="M294.96,406.87c-1.12-1.47-2.24-2.94-3.36-4.41-5.8-8.63-11.59-17.25-17.39-25.88-10.46-15.17-20.89-30.35-31.41-45.47-.83-1.19-2.31-1.92-3.48-2.87-2.17-7.51-1.69-9.02,3.98-12.61.72,1.58,1.23,3.31,2.2,4.71,17.24,25.02,34.53,50.01,51.87,74.96.75,1.08,2.1,1.73,3.17,2.58-1.86,3-3.72,5.99-5.58,8.99Z"/>
      <path class="cls-18" d="M673.96,402.49c-1.06,1.15-2.12,2.29-3.18,3.43-1.56-2.3-3.11-4.6-4.67-6.9,19.05-27.49,38.1-54.97,57.15-82.46,5.5,2.74,6.36,5.06,3.63,9.83-.44.17-1.06.22-1.28.54-6.7,9.72-13.42,19.44-20.01,29.24-4.53,6.74-8.87,13.6-13.3,20.41-6.11,8.64-12.22,17.27-18.34,25.91Z"/>
      <path class="cls-15" d="M300.54,397.89c-1.07-.85-2.42-1.51-3.17-2.58-17.34-24.95-34.63-49.94-51.87-74.96-.97-1.41-1.48-3.13-2.2-4.71,3.44-1.67,6.92-3.78,9.7.98,2.53,3.83,5.01,7.69,7.61,11.47,10.37,15.01,20.77,29.99,31.19,44.97.44.63,1.14,1.08,1.72,1.62,2.92,4.18,5.84,8.36,8.75,12.54.46,1.63.91,3.25,1.37,4.88-1.03,1.93-2.06,3.87-3.09,5.8Z"/>
      <path class="cls-15" d="M723.26,316.56c-19.05,27.49-38.1,54.97-57.15,82.46-1.3-2.01-2.61-4.02-3.91-6.04.42-1.64.85-3.27,1.27-4.91,2.87-4.46,5.73-8.92,8.6-13.38,4.85-6.52,9.82-12.95,14.51-19.58,9.06-12.78,17.96-25.67,26.93-38.51,3.23-5.78,6.49-1.66,9.75-.04Z"/>
      <path class="cls-20" d="M692.29,376.57c4.43-6.81,8.77-13.67,13.3-20.41,6.59-9.8,13.31-19.51,20.01-29.24.22-.32.85-.36,1.28-.54,2.01,3.48,4.02,6.96,6.02,10.45-1.36,5-1.98,10.39-4.3,14.89-2.2,4.27-6.18,7.63-9.38,11.39-3.39-2.34-6.95-3.22-10.53-.63-3.56,2.57-3.96,6.21-2.85,10.18-4.52,1.3-9.04,2.61-13.56,3.91Z"/>
      <path class="cls-20" d="M239.31,328.24c1.18.95,2.66,1.68,3.48,2.87,10.53,15.12,20.96,30.3,31.41,45.47-4.88-.98-9.75-1.97-14.63-2.95,1.63-4.04,1.79-7.94-1.96-10.88-3.69-2.89-7.46-2.15-11.03.49-8.62-6.29-12.1-15.4-13.94-25.41,2.22-3.2,4.45-6.39,6.67-9.59Z"/>
      <path class="cls-10" d="M719.23,363.12c3.2-3.76,7.18-7.12,9.38-11.39,2.32-4.51,2.94-9.89,4.3-14.89,1.57,3.17,3.15,6.35,4.72,9.52.35,1.7.7,3.41,1.05,5.12.14,4.54.28,9.08.43,13.61-.2,1.63-.41,3.26-.61,4.89-.85,1.99-1.7,3.98-2.55,5.97-7.23-2.12-14.85-3.72-16.72-12.83Z"/>
      <path class="cls-10" d="M232.64,337.83c1.84,10.01,5.32,19.12,13.94,25.41-1.4,6.91-6.35,9.91-12.61,11.48-1.38.35-2.74.8-4.1,1.2-.75-2-1.5-4.01-2.25-6.01-.28-1.62-.57-3.25-.85-4.87.15-4.48.29-8.96.44-13.44.19-1.7.37-3.4.56-5.1,0,0,.05.09.05.09.34-.36.68-.72,1.02-1.08,1.27-2.56,2.54-5.12,3.81-7.68Z"/>
      <path class="cls-8" d="M228.83,345.51c-.34.36-.68.72-1.02,1.08.34-.36.68-.72,1.02-1.08Z"/>
      <path class="cls-1" d="M137.97,657.63c4.51-10.99,9.11-21.95,13.46-33,1.08-2.74,1.35-5.81,2-8.72,1.48-2.25,3.29-4.35,4.4-6.77,8.04-17.48,15.87-35.05,23.93-52.52,3.96-8.58,8.27-17,12.42-25.49,1.28.63,2.56,1.25,3.84,1.88-.96,2.44-1.92,4.89-2.86,7.27,7.28,4,12.29,2.95,17.24-3.35,1.4.11,2.81.21,4.21.32-.95,2.19-1.84,4.41-2.86,6.56-8.16,17.15-16.34,34.28-24.52,51.41-4.64,10.48-9.31,20.94-13.8,31.47-.27.63.95,1.89,1.48,2.86-6.4,6.06-7.92,14.61-10.62,22.32-6.73,19.26-12.54,38.85-18.7,58.31-.98,3.1-1.55,6.37-2.84,9.34-3.27,7.54-9.8,8.89-15.51,6.87-6.4-2.27-9.08-9.08-6.92-16.03,5.25-16.93,10.47-33.87,15.67-50.81.18-.58,0-1.27-.02-1.91ZM206.22,547.12c-4.5-.63-9-1.26-13.93-1.95-1.97,3.97-4.05,8.19-6.1,12.32,9.12,5.92,18.4.79,20.03-10.37ZM143.2,707.79c-4.32,0-7.78-.05-11.25.03-1.07.02-2.92.12-3.07.61-.9,2.8-2.4,6-1.73,8.55.56,2.13,3.56,4.28,5.94,5.11,3.31,1.15,5.9-1.1,7.09-4.22,1.24-3.24,2.01-6.65,3.01-10.07ZM146.62,694.67c-2.28.23-4.14.51-6.01.58-2.08.08-4.17.06-6.25-.05-4.14-.22-3.14,3.38-3.77,5.46-.23.74,1.43,2.8,2.52,3.06,5.77,1.42,11.87-2.61,13.51-9.05ZM162.53,610.06c-.68,2.26-4.63,4.91-.84,7.72,4.84,3.59,13.59-.71,14.64-6.47-4.46-.4-8.95-.81-13.81-1.25ZM162.48,646.89c-3.98-.26-8.05-.93-12.03-.59-1.44.13-3.02,2.51-3.85,4.21-.41.83.41,3.13,1.27,3.56,5.47,2.75,13.37-1.47,14.61-7.18ZM150.48,682.74c-4.46,0-8.68-.34-12.79.2-1.29.17-2.93,2.57-3.19,4.15-.2,1.24,1.22,3.71,2.37,4.04,5.61,1.6,11.57-2.21,13.61-8.39ZM171.72,622.79c-3.03,0-5.59.17-8.13-.03-6.79-.55-6.78-.61-8.62,6.13,7.67,3.46,14.12,1.38,16.75-6.1ZM197.96,564.01c-1.95.27-3.32.63-4.69.59-1.42-.04-2.83-.48-4.24-.74-6.23-1.16-6.64-.88-7.99,5.6,6.63,4.34,14.34,2.17,16.92-5.45ZM192.26,576.39c-3.91-.58-7.91-1.64-11.87-1.5-1.56.05-3.31,2.64-4.35,4.43-.34.58.98,2.95,2.02,3.4,5.82,2.55,12.37-.68,14.2-6.32ZM158.13,658.49c-4.28,0-8.06.06-11.84-.02-3.82-.08-3.75,3.11-4.1,5.36-.13.83,1.93,2.63,3.25,2.97,5.2,1.34,10.76-2.21,12.69-8.31ZM186.97,587.74c-3.1-.2-5.94-.09-8.64-.62-6.16-1.22-6.91-.78-8.08,6.02,6.84,3.83,14.2,1.51,16.72-5.39ZM166.92,598.25c-.44,1.92-.98,4.3-1.52,6.68,2.24.51,4.48,1.06,6.74,1.49.77.14,1.67.14,2.39-.14,3.47-1.33,7.18-2.51,7.27-6.6-4.87-.47-9.23-.88-14.88-1.42ZM154.16,670.68h-14.49c-.49,1.58-1.38,3.35-1.47,5.16-.04.95,1.17,2.61,2.09,2.83,6.48,1.59,11.57-1.39,13.87-7.99ZM152.4,634.12c-.41,2-.94,4.53-1.46,7.07,2.31.33,4.61.68,6.92.97.63.08,1.31.06,1.92-.11,3.68-1.05,6.31-3.1,7.43-7.11-5.09-.28-9.48-.52-14.8-.82Z"/>
      <path class="cls-22" d="M393.83,656.84c-2.79-2.41-5.51-4.91-8.42-7.17-1.12-.87-2.67-1.19-4.02-1.76-8.93-6.62-17.59-13.64-26.85-19.76-13.76-9.08-28.68-16.16-44.4-20.95-15.37-4.69-31.15-8.04-46.75-11.99-.3-.08-.56-.31-.84-.47-2.41-.63-4.79-1.41-7.23-1.87-12.05-2.27-24.11-4.45-36.17-6.67.74-.67,1.4-1.8,2.22-1.93,5.2-.79,10.42-1.76,15.66-1.94,21.34-.74,42.51.46,63.43,5.24,23.77,5.43,46.27,14.09,67.39,26.17,8.88,5.08,17.2,11.13,25.66,16.91,1.08.74,2.14,2.52,2.07,3.75-.4,7.49-1.13,14.96-1.75,22.43Z"/>
      <path class="cls-17" d="M219.15,586.21c12.06,2.21,24.12,4.4,36.17,6.67,2.44.46,4.82,1.24,7.23,1.87-10.72,3.28-21.65,5.99-32.1,9.97-13.77,5.25-27.22,11.35-40.67,17.39-4.5,2.02-8.59,4.94-12.86,7.46-.53-.97-1.75-2.23-1.48-2.86,4.49-10.54,9.17-21,13.8-31.48,8.06-3.36,16.12-6.71,24.17-10.07,1.91.35,3.83.71,5.74,1.06Z"/>
      <path class="cls-19" d="M219.15,586.21c-1.91-.35-3.83-.71-5.74-1.06,3.55-7.84,6.34-16.15,10.84-23.41,5.62-9.07,12.65-17.27,19.07-25.85,6.01-5.13,12.03-10.27,18.93-16.16-8.46.62-15.57,1.75-22.63,1.5-8.41-.3-16.85-1.38-25.15-2.82-18.09-3.15-34.18-10.47-47-24.07-1.91-2.03-4.04-3.86-6.06-5.79-.44-1.21-.88-2.42-1.26-3.49,8.46.48,16.39.93,24.32,1.38,11.25.11,22.23-1.47,32.83-5.36,3.98-1.59,7.96-3.18,11.94-4.77,15.01-6.55,26.15-17.72,36.16-30.25,1.64-1.94,3.29-3.88,4.93-5.82,1.97-2.54,3.95-5.07,5.92-7.61,1.5-1.89,3-3.78,4.49-5.67,4.74-6.7,9.48-13.4,14.22-20.11,1.86-3,3.72-6,5.58-8.99,1.03-1.93,2.06-3.87,3.1-5.8,5.01-8.38,10.02-16.76,15.02-25.14,1.57-1.86,3.39-3.56,4.65-5.61,3.72-6.05,7.21-12.24,10.79-18.37,9.9-11.8,21.19-22.27,34.76-29.41,14.83-7.8,30.49-14.03,45.78-20.95,6.46-1.36,12.93-2.71,19.39-4.07,11.46-1.39,22.89-3.29,34.39-4.06,21.22-1.42,42.36-.18,63.25,4.11,6.53,1.34,13.06,2.67,19.59,4.01,4.47,1.68,8.94,3.38,13.41,5.05,20.5,7.63,39.31,18.1,55.43,33.05,4.55,4.22,8.87,8.68,13.29,13.03,2.8,5.31,5.47,10.7,8.47,15.9,1.34,2.32,3.34,4.25,5.04,6.36,1.16,2.88,1.97,5.96,3.54,8.59,3.73,6.25,7.82,12.29,11.76,18.42,1.3,2.01,2.61,4.02,3.91,6.04,1.56,2.3,3.11,4.6,4.67,6.9,4.91,7.03,9.82,14.07,14.73,21.1,1.35,1.86,2.7,3.71,4.05,5.57,2.13,2.67,4.26,5.34,6.39,8.01,1.6,1.87,3.19,3.74,4.79,5.61,9.93,12.46,21.04,23.53,35.9,30.1,1.55.65,3.11,1.29,4.66,1.94l.15.08c.35.17.7.33,1.06.5,1.95.71,3.89,1.41,5.84,2.11,10.59,4.06,21.61,5.6,32.89,5.52,8.18-.46,16.37-.93,24.81-1.4-.5,1.1-1.06,2.35-1.62,3.59-.86.6-1.89,1.06-2.55,1.83-9.61,11.2-21.34,19.29-35.31,24.09-18.45,6.35-37.48,7.03-56.71,5.85-1.72-.11-3.42-.53-5.13-.81-.1.3-.2.6-.3.91,6.03,5.16,12.07,10.33,18.1,15.49,3.81,4.73,7.75,9.35,11.39,14.21,7.97,10.66,15.31,21.69,18.47,34.91-1.68.34-3.37.67-5.05,1.01-3.45-.97-6.85-2.55-10.35-2.78-10.06-.66-20.16-1.24-30.22-.99-18.9.47-37.44,3.65-55.62,8.91-22.94,6.63-44.35,16.61-64.49,29.37-4.72,2.99-9.49,5.99-13.77,9.54-1.48,1.23-2.14,4.16-2.13,6.31.02,7.03.53,14.05.85,21.08-2.03,8.23-4.07,16.46-6.1,24.69-3.06,5.44-5.88,11.03-9.24,16.28-5.95,9.28-14.47,15.75-24.08,20.9-5.29,1.13-10.54,2.73-15.89,3.32-15.33,1.67-22.38-.04-29.14-14.02-1.55-3.2-2.65-6.61-4.28-10.75-.55,1.69-.85,2.53-1.09,3.39-4.8,16.99-13.14,23.39-29.37,21.74-6.31-.64-12.49-2.47-18.73-3.76-7.87-4.41-15.6-9.15-20.84-16.69-4.46-6.42-8.18-13.35-12.23-20.05-2.26-8.58-4.51-17.17-6.77-25.75.62-7.48,1.35-14.95,1.75-22.43.07-1.24-.99-3.02-2.07-3.75-8.46-5.78-16.79-11.83-25.66-16.91-21.11-12.08-43.62-20.74-67.39-26.17-20.92-4.78-42.1-5.98-63.43-5.24-5.24.18-10.46,1.15-15.66,1.94-.82.12-1.48,1.26-2.22,1.93ZM290.67,462.45c-.22-.29-.43-.58-.65-.86-.04.4-.08.81-.11,1.21.23.58.46,1.15.69,1.73l-.08-.06c2.18,17.03,11.08,29.79,25.22,39.01,12.83,8.37,27.41,12.57,42.11,15.93,27.44,6.27,52.51,16.78,72.56,37.28.55.75,1.09,1.5,1.8,2.47.23-.82.44-1.27.47-1.73,1.65-24.32-6.75-58.81-42.83-75.6-18.57-8.65-38.19-10.69-58.28-10.82-14.16-.09-28.28-.66-40.81-8.62l-.07.07ZM535.93,556.15l-.06.05c19.58-19.34,43.49-29.97,70-36.26,13.33-3.17,26.57-7.76,38.98-13.58,17.87-8.38,28.17-23.29,30.99-43.06-.04-.67-.08-1.33-.11-1.98.19.04.37.07.56.11-.05-.04-.1-.12-.15-.12-.12.01-.24.06-.36.09-7.98,6.03-17.17,8.29-26.97,8.97-16.63,1.15-33.57.89-49.8,4.1-34.25,6.76-57.75,26.2-64.46,62.1-1.34,7.16-1.31,14.58-1.91,21.88.55.07,1.09.14,1.64.2.27-.53.54-1.06.82-1.59.28-.31.57-.62.85-.93ZM486.31,682.68c2.83-1.21,8.72-2.97,13.77-6.08,9.45-5.84,16.09-14.63,22.5-23.56,1.9-2.65,1.78-4.97.5-7.58-4.13-8.44-11.99-11.15-20.33-12.9-.98-.21-2.46,1.07-3.44,1.95-3.48,3.09-6.7,6.47-10.28,9.42-3.81,3.14-8.07,3.25-11.93.11-3.6-2.93-6.84-6.3-10.31-9.4-1-.89-2.23-2.06-3.41-2.13-7.23-.43-18.38,6.84-20.68,13.67-.62,1.83-.6,4.8.49,6.12,6.34,7.63,12.7,15.32,19.81,22.21,5.37,5.2,12.35,8.05,23.32,8.17ZM482.27,446.81c.43.03.87.05,1.3.08.39-1.54.93-3.06,1.16-4.62,3.51-24.13,7.23-48.23,10.35-72.4,1.6-12.41,2.56-24.97-1.57-37.23-1.93-5.73-5.21-8.51-10.24-8.54-5.07-.03-8.39,2.69-10.34,8.41-3.29,9.65-3.32,19.62-2.34,29.55,1.61,16.29,3.33,32.58,5.52,48.8,1.63,12.04,4.08,23.97,6.17,35.95ZM277.6,500.87c-.24,14.14,5.5,23.82,14.98,31.26,14.64,11.5,31.56,15.18,49.85,13.07,2.69-.31,5.3-1.32,7.94-2-24.64-13.3-49.77-24.65-72.78-42.33ZM615.77,542.64c10.01,3.97,20.07,3.94,30.05,1.85,15.76-3.29,29.55-10.02,38.05-24.59,3.15-5.4,5.2-11.2,4.11-18.83-22.55,17.51-47.77,28.69-72.22,41.56ZM505.36,440.14c10.49-15.05,24.12-24.25,38.79-32.18,1.92-1.04,3.64-2.69,5.06-4.39,2.49-2.97,2.9-6.42,1.07-9.91-1.92-3.66-5.14-5.4-9.17-4.85-2.66.36-5.36,1.19-7.8,2.32-15.38,7.12-29,30.29-27.95,49ZM460.04,439.25c.47-1,.67-1.26.71-1.54.06-.47.04-.96,0-1.44-1.62-17.56-9.36-31.87-23.47-42.39-3.33-2.49-7.74-3.8-11.85-4.91-4.12-1.11-7.62.72-9.68,4.54-2.05,3.81-1.54,7.59,1.49,10.62,2.12,2.13,4.57,4.12,7.23,5.49,13.89,7.16,25.95,16.49,35.57,29.63ZM331.33,562.94c-9.23.65-17.88,2.3-26.33,1.55-8.55-.76-16.89-3.91-25.59-6.08,2.99,8.22,9.18,13.14,17.66,14.76,12.86,2.45,24.19-1.05,34.26-10.22ZM686.16,557.63c-16.3,8.92-33.37,8.32-50.81,5.28,9.36,9.01,20.4,12.59,32.94,10.39,8.71-1.53,15.18-6.41,17.87-15.67Z"/>
      <path class="cls-2" d="M532.18,719.42c9.61-5.14,18.13-11.62,24.08-20.9,3.37-5.24,6.18-10.84,9.24-16.28,5.84,28.23,13.55,55.87,25.18,82.34,13.03,29.68,29.75,57.12,51.34,81.24,13.91,15.55,29.27,29.8,43.98,44.64.55.55,1.03,1.17,2.01,2.27-50.77,26.23-104.38,41.18-160.66,46.65-107,10.4-198.06-18.9-249.26-46.99,1.59-1.49,3.07-2.93,4.6-4.3,29.27-26.25,55.1-55.37,75.15-89.39,19.2-32.59,31.82-67.67,39.97-104.47.86-3.89,1.85-7.76,2.79-11.64,4.05,6.7,7.77,13.63,12.23,20.05,5.23,7.53,12.97,12.27,20.84,16.69,3.13,3.95,6.26,7.9,9.39,11.85,1.18,1.05,2.28,2.22,3.56,3.15,14.2,10.23,30.34,11.37,46.93,9.62,11.21-1.18,21.5-4.92,29.72-13.12,2.97-3.8,5.93-7.61,8.9-11.41Z"/>
      <path class="cls-2" d="M184.46,486.46c-7.93-.45-15.86-.9-24.32-1.38.39,1.06.83,2.28,1.26,3.49,2.96,6.35,5.92,12.7,8.87,19.04-.81.98-1.76,1.88-2.41,2.96-9.66,15.89-19.39,31.74-28.86,47.75-4.16,7.03-8.1,14.23-11.49,21.65-2.53,5.53.69,11.71,6.43,14.16,5.01,2.14,11.33-.07,14.16-4.91,12.46-21.32,24.92-42.63,37.39-63.94,2.9,1.96,5.8,3.91,8.7,5.87-4.15,8.49-8.46,16.91-12.42,25.49-8.06,17.47-15.89,35.05-23.93,52.52-1.11,2.42-2.92,4.52-4.4,6.77-23.78,15.35-44.9,33.86-64.51,54.16-5.43,5.63-10.67,11.45-16.42,17.63-32.43-65.33-48.46-133.96-48.32-206.33.14-71.71,16.48-139.62,48.49-204.65,23.45,27.85,49.64,51.65,79.14,71.77-8.19,3.61-16.6,6.81-24.53,10.91-11.43,5.91-21.02,14.02-27.25,25.65-11.07,20.67.15,45.5,17.22,54.99,14.06,7.81,29.17,9.43,44.76,7.2,12.02-1.72,23.95-4.05,35.92-6.11.76,2.62,1.51,5.23,2.27,7.85,1.65,3.5,3.3,7.01,4.95,10.51-6.9,8.99-13.8,17.98-20.7,26.97Z"/>
      <path class="cls-2" d="M531.66,288.58c-20.9-4.29-42.03-5.53-63.25-4.11-11.5.77-22.93,2.67-34.39,4.06-2.7-4.52-5.39-9.04-8.09-13.56-.02-.16,0-.34-.08-.47-21.23-40.27-36.4-82.61-43.64-127.67-.12-.74-1.17-1.33-1.78-1.99-6.85,5.28-13.72,10.53-20.54,15.85-1.23.96-2.23,2.22-3.34,3.34-18.2-30.9-41.56-57.54-67.75-81.84-3.51-3.26-7.06-6.47-11.08-10.15,64.85-32.49,133.11-47.87,204.86-48.6,66.3-.68,170.14,24,205.22,48.89-4.61,4.3-9.15,8.54-13.7,12.77-24.38,22.7-45.75,47.89-63.27,76.27-.5.82-1.11,1.57-1.66,2.36-5.8-5.21-11.55-10.48-17.44-15.59-1.27-1.1-3.05-1.63-4.59-2.42,0,0,.02.02.02.02-.68-.36-1.36-.72-2.04-1.08-.62,1.51-1.55,2.96-1.8,4.52-3.56,21.6-8.4,42.96-16.41,63.31-8.46,21.47-18.3,42.4-27.54,63.56-2.56,4.17-5.13,8.35-7.69,12.52Z"/>
      <path class="cls-2" d="M804.43,488.64c.56-1.25,1.12-2.49,1.62-3.59-8.44.48-16.63.94-24.81,1.4-6.81-8.97-13.62-17.93-20.43-26.9,1.6-3.52,3.2-7.03,4.8-10.55.76-2.6,1.52-5.2,2.27-7.8,7.37,1.48,14.7,3.14,22.11,4.41,17.37,2.97,34.68,4.4,51.7-2.18,27.87-10.77,39.1-45.62,16.45-69.4-10.81-11.35-24.31-18.22-38.9-23.27-1.79-.62-3.51-1.43-5.26-2.16,19.22-13.27,37.43-27.8,53.89-44.4,7.35-7.41,14.35-15.17,21.44-22.85,1.17-1.27,1.94-2.9,3.49-4.03,25.67,50.69,41.29,103.45,46.64,159.13,8.44,87.84-6.56,171.45-46.01,251.36-3.56-3.89-6.75-7.4-9.96-10.89-21.11-22.9-44.27-43.44-70.28-60.68-.66-.44-1.42-.74-2.13-1.1-10.66-22.99-21.26-46.01-32.03-68.94-2.37-5.05-5.33-9.83-8.02-14.73,2.93-1.97,5.87-3.95,8.81-5.93,7,11.11,14.18,22.1,20.93,33.35,5.94,9.9,11.22,20.18,17.11,30.11,3.58,6.03,9.06,7.49,14.86,4.67,5.95-2.89,8.34-9.75,4.94-15.94-7.49-13.63-15.07-27.22-23.05-40.57-5.98-10.02-12.64-19.63-18.99-29.43,2.93-6.36,5.86-12.72,8.79-19.08Z"/>
      <path class="cls-6" d="M203.7,414.24c-18.78,6.85-37.98,11.67-58.14,10.51-10.75-.62-20.74-3.53-25.47-14.8-3.25-7.74-1.37-15.6,6.3-21.91,16.74-13.79,36.07-20.99,57.91-21.03,9.19,4.18,18.24,8.67,27.59,12.44,7.55,3.05,15.45,5.23,23.19,7.79,1.44,2.22,2.89,4.45,4.33,6.67-15.77-.03-27.65,6.79-35.7,20.32Z"/>
      <path class="cls-10" d="M239.41,393.92c-1.44-2.22-2.89-4.45-4.33-6.68-.88-1.89-1.75-3.79-2.62-5.68,4.14-1.61,8.26-3.3,12.44-4.8,1.23-.44,2.86-.89,3.95-.45,4.35,1.77,7.71.37,10.75-2.69,4.88.98,9.75,1.97,14.63,2.95,5.8,8.63,11.59,17.25,17.39,25.88,0,0,.11.36.11.36-5.54,1.27-11.09,2.53-16.63,3.8-10.33-.05-20.03-2.21-28.53-8.48-.6-.44-1.51-.45-2.27-.67-1.62-1.18-3.24-2.37-4.86-3.55Z"/>
      <path class="cls-20" d="M200.2,448.98c-.76-2.62-1.51-5.23-2.27-7.85,3.24-1.17,6.48-2.35,9.73-3.52,7,1.22,14,2.45,21.01,3.66,7.46,1.29,14.92,2.56,22.38,3.84-3.63,2.44-7.27,4.87-10.9,7.31-1.84-3.71-4.51-6.2-8.96-5.28-4.58.95-5.71,4.45-5.73,8.57-8.87-.54-17.37-2.47-25.25-6.74Z"/>
      <path class="cls-4" d="M232.45,381.57c.87,1.89,1.75,3.79,2.62,5.68-7.74-2.56-15.64-4.74-23.19-7.79-9.35-3.77-18.41-8.26-27.59-12.44,1.5-.33,3.03-1.07,4.48-.93,10.75.97,21.48,2.11,32.21,3.2,2.21.22,4.42.42,6.63.64.75,2.01,1.5,4.01,2.25,6.01.86,1.88,1.72,3.76,2.58,5.64Z"/>
      <path class="cls-18" d="M251.05,445.11c-7.46-1.28-14.92-2.55-22.38-3.84-7-1.21-14.01-2.44-21.01-3.66,5.45-1.93,10.91-3.87,16.36-5.8.48.55.9,1.52,1.46,1.6,7.35,1.09,14.74,1.95,22.08,3.07,7.61,1.15,15.18,2.52,22.77,3.79-1.64,1.94-3.29,3.88-4.93,5.82-4.78-.32-9.56-.65-14.34-.97Z"/>
      <path class="cls-15" d="M270.32,440.27c-7.59-1.27-15.16-2.64-22.77-3.79-7.35-1.12-14.73-1.98-22.08-3.07-.55-.08-.97-1.05-1.46-1.6,3.5-1.38,6.99-2.77,10.49-4.15,9.05,1,18.1,2.01,27.16,3.01,4.86.67,9.73,1.33,14.59,2-1.97,2.54-3.95,5.07-5.92,7.61Z"/>
      <path class="cls-20" d="M239.41,393.92c1.62,1.18,3.24,2.37,4.86,3.55-13.52,5.59-27.04,11.18-40.57,16.77,8.06-13.53,19.93-20.35,35.7-20.32Z"/>
      <path class="cls-10" d="M276.25,432.66c-4.86-.67-9.73-1.33-14.59-2,.97-5.8,1.93-11.6,2.9-17.4,2.25-1.37,4.5-2.74,6.84-4.17,1.4,1.6,2.52,2.89,3.64,4.17,1.15,2.34,2.31,4.67,3.46,7,.75,2.23,1.5,4.47,2.25,6.71-1.5,1.89-3,3.79-4.5,5.68Z"/>
      <path class="cls-20" d="M264.56,413.26c-.97,5.8-1.93,11.6-2.9,17.4-9.05-1-18.1-2.01-27.16-3.01,10.02-4.8,20.04-9.59,30.05-14.39Z"/>
      <path class="cls-17" d="M101.68,389.25c3.52.85,5.66,1.42,7.83,1.88,2.18.46,4.38.82,6.75,1.25-.75,7.4-4.4,13.12-10.24,17.48-3.45,2.58-5.61,1.68-5.53-2.46.11-5.97.76-11.94,1.19-18.15Z"/>
      <path class="cls-4" d="M247.5,416.86c-3.41-4.1-6.45-7.76-9.43-11.35,4.23-3.87,12.88-1.5,17.67,7.24-2.94,1.47-5.86,2.93-8.23,4.11Z"/>
      <path class="cls-4" d="M189.81,347.69c2.65,0,5.36-.24,7.99.12,1.06.14,2.52,1.45,2.8,2.49.98,3.63,1.52,7.37,2.24,11.13-6.66,1.95-13.53-4.66-13.04-13.73Z"/>
      <path class="cls-4" d="M124.91,382.66c-3.83,5.03-11.45,6.11-19.81,2.24,2.41-3.22,4.71-6.29,6.91-9.23,4.67,2.53,8.78,4.76,12.9,6.99Z"/>
      <path class="cls-4" d="M109.28,427.53c-1.05-1.41-2.14-2.73-3.08-4.16-3.91-5.94-3.86-5.9,1.9-9.7,2.23-1.47,4.27-3.22,6.42-4.87,2.58,5.32.28,13.69-5.24,18.73Z"/>
      <path class="cls-4" d="M139.33,442.53c-2.79-.48-5.68-.57-8.18-1.59-1.23-.5-2.41-2.72-2.47-4.2-.13-3.42.43-6.86.72-10.32,5.78.27,10.67,7.46,9.93,16.11Z"/>
      <path class="cls-4" d="M175.3,362.43c-6.39,1.4-11.74-1.04-15.02-6.53-1.75-2.93-.95-4.52,2.14-5.21,2.16-.48,4.38-.73,6.24-1.03,2.27,4.36,4.39,8.42,6.65,12.77Z"/>
      <path class="cls-17" d="M136.9,374.96c-7.44,4.36-14.89,3.29-20.39-2.98,2.37-1.81,4.62-3.76,7.12-5.31.73-.45,2.47-.12,3.24.5,1.61,1.27,2.73,3.14,4.33,4.42,1.58,1.26,3.5,2.09,5.7,3.37Z"/>
      <path class="cls-4" d="M189.83,361.65c-8.14.72-14.07-4.15-15.55-12.7,3.41-.45,6.81-.89,10.38-1.36.65,2.8,1,5.33,1.86,7.68.8,2.19,2.14,4.19,3.31,6.39Z"/>
      <path class="cls-4" d="M233.65,422.87c-3.66-3.84-6.8-7.14-9.94-10.43,5.54-5,14.27-.66,16.86,3.75.53.91-.13,3.38-1.05,4.08-1.7,1.3-3.99,1.82-5.88,2.6Z"/>
      <path class="cls-4" d="M119.59,419.03c4.36,3.76,6.7,11.83,4.68,16.39-.38.86-2.77,1.74-3.57,1.32-2.76-1.43-5.23-3.42-7.96-5.31,1.52-2.35,2.8-4.14,3.86-6.05,1.06-1.93,1.89-3.98,3-6.36Z"/>
      <path class="cls-4" d="M217.53,363.47c-7.18.82-13.05-5.7-12.42-14.93,3.24.34,6.46.69,9.37,1,1.1,5.03,2.07,9.49,3.05,13.94Z"/>
      <path class="cls-4" d="M153.28,353.39c3.08,4.19,5.84,7.94,8.63,11.74-8.68,2.51-14.6-.38-17.48-8.54.96-.49,1.89-1.12,2.92-1.47,1.94-.66,3.93-1.16,5.92-1.73Z"/>
      <path class="cls-4" d="M155.2,429.91c8.51-.62,13.8,3.56,15.19,12.04-3.39.46-6.77.92-9.85,1.34-1.89-4.73-3.56-8.92-5.34-13.38Z"/>
      <path class="cls-17" d="M148.9,369.58c-7.67,3.14-14.57.86-18.89-6.78,3.06-1.54,6.09-3.07,8.61-4.33,3.65,3.95,6.87,7.43,10.28,11.11Z"/>
      <path class="cls-4" d="M199.97,435.18c-2.66.78-5.02,1.7-7.48,2.07-.94.14-2.44-.72-3.05-1.57-2.29-3.19-4.32-6.57-6.44-9.85,7.03-3.01,14.16.55,16.97,9.36Z"/>
      <path class="cls-17" d="M155.2,443h-10.5c-1.06-4.68-2.06-9.1-3.06-13.52,5.9-1.24,12.15,4.58,13.55,13.52Z"/>
      <path class="cls-4" d="M185.29,439.07c-3.37.77-6.43,1.47-9.25,2.11-2.35-4.4-4.56-8.51-6.77-12.64,7.66-2.09,13.92,1.84,16.01,10.53Z"/>
      <path class="cls-17" d="M196.63,421.75c8.51-2.51,14.44.24,17.53,8.6-2.5.91-4.96,2-7.54,2.61-.82.19-2.25-.7-2.88-1.5-2.43-3.07-4.65-6.31-7.11-9.71Z"/>
      <path class="cls-17" d="M210.41,417.31c7.85-3.27,15.38,0,17.33,7.96-2.86,1.12-5.77,2.26-8.17,3.2-3.23-3.93-6.11-7.45-9.16-11.17Z"/>
      <path class="cls-11" d="M227.21,351.6c-.15,4.48-.29,8.96-.44,13.44-5.79-3.07-7.63-7.4-5.9-14.51,2.09.35,4.22.71,6.34,1.07Z"/>
      <path class="cls-11" d="M275.07,406.62c5.54-1.27,11.09-2.53,16.63-3.8-3.96,7.5-12.11,9.36-16.63,3.8Z"/>
      <path class="cls-11" d="M278.5,420.27c-1.15-2.33-2.31-4.67-3.46-7,2.76.42,5.51.85,9.72,1.5-2.58,2.27-4.42,3.89-6.26,5.51Z"/>
      <path class="cls-6" d="M781.95,366.81c20.2.5,38.5,6.75,54.62,18.82,6.79,5.09,12.53,11.28,10.24,21.09-2.41,10.31-9.87,15.15-19.38,17.06-14.8,2.99-29.38.38-43.79-3.06-5.77-1.38-11.47-3.04-17.14-4.77-1.59-.49-2.96-1.7-4.43-2.58-8.61-12.64-20.21-19.78-35.85-19.48,1.5-2.22,2.99-4.45,4.49-6.67.95-.08,2,.08,2.84-.27,16.15-6.68,32.28-13.42,48.41-20.15Z"/>
      <path class="cls-10" d="M730.7,387.23c-1.5,2.22-2.99,4.45-4.49,6.67-1.33,1.26-2.66,2.52-3.98,3.78-2.86,1.38-5.72,2.77-8.58,4.15-.38.27-.76.53-1.14.8,0,0,.06-.06.06-.06-4.26,1.26-8.52,2.52-12.78,3.77-2.83.09-5.65.17-8.48.26-5.44-1.03-10.87-2.05-16.31-3.08,0,0,0,.05,0,.05-.36-.23-.73-.45-1.09-.68,0,0,.06-.41.06-.41,6.11-8.64,12.22-17.27,18.33-25.91,4.52-1.3,9.04-2.61,13.56-3.91,2.83,1.45,6.04,4.53,8.4,3.99,3.91-.9,6.75.12,9.97,1.47,3.1,1.3,6.32,2.3,9.49,3.44-1.01,1.89-2.01,3.78-3.02,5.67Z"/>
      <path class="cls-20" d="M767.88,441.2c-.76,2.6-1.52,5.2-2.27,7.8-7.83,4.07-16.16,6.32-24.98,6.75.04-3.78-1.15-6.98-4.91-8.36-4.02-1.47-6.99.49-9.34,3.67-3.64-1.98-7.28-3.96-10.91-5.94,5.11-.96,10.21-1.96,15.32-2.87,9.04-1.6,18.09-3.14,27.14-4.71,3.32,1.22,6.64,2.44,9.96,3.65Z"/>
      <path class="cls-4" d="M730.7,387.23c1.01-1.89,2.01-3.78,3.02-5.67.75-1.87,1.49-3.74,2.24-5.6.85-1.99,1.7-3.98,2.55-5.97,10.57-1.24,21.13-2.65,31.72-3.64,3.86-.36,7.82.29,11.73.47-16.13,6.73-32.26,13.47-48.41,20.15-.84.35-1.89.19-2.84.27Z"/>
      <path class="cls-18" d="M757.92,437.54c-9.05,1.57-18.1,3.11-27.14,4.71-5.12.91-10.22,1.91-15.32,2.87-4.91.36-9.81.72-14.72,1.08-1.6-1.87-3.19-3.74-4.79-5.61.5-.37.95-1,1.49-1.07,11.89-1.71,23.81-3.25,35.68-5.08,2.88-.44,5.62-1.79,8.42-2.73,5.46,1.95,10.92,3.89,16.38,5.84Z"/>
      <path class="cls-15" d="M741.54,431.71c-2.8.93-5.54,2.28-8.42,2.73-11.87,1.83-23.79,3.38-35.68,5.08-.54.08-1,.7-1.49,1.07-2.13-2.67-4.26-5.34-6.39-8.01,5.1-.65,10.19-1.29,15.29-1.93,8.37-1.22,16.73-2.44,25.1-3.66,3.87,1.57,7.73,3.15,11.6,4.72Z"/>
      <path class="cls-20" d="M722.23,397.67c1.33-1.26,2.66-2.52,3.98-3.78,15.64-.3,27.24,6.84,35.85,19.48-.85.07-1.83.44-2.53.15-12.46-5.24-24.88-10.55-37.31-15.85Z"/>
      <path class="cls-10" d="M704.85,430.65c-5.1.64-10.19,1.29-15.29,1.93-1.35-1.86-2.7-3.71-4.05-5.57.68-2.33,1.36-4.67,2.03-7,1.09-2.22,2.18-4.44,3.27-6.66,1.11-1.28,2.22-2.56,3.75-4.32,2.14,1.35,4.31,2.71,6.48,4.08,1.27,5.85,2.54,11.69,3.8,17.54Z"/>
      <path class="cls-20" d="M704.85,430.65c-1.27-5.85-2.54-11.69-3.8-17.54,9.63,4.62,19.27,9.25,28.9,13.87-8.37,1.22-16.73,2.44-25.1,3.66Z"/>
      <path class="cls-17" d="M864.32,412.06c-9.13-3.39-12.71-10.89-14.97-19.58,4.51-.89,8.95-1.76,13.39-2.64,3.83,7,4.3,13.16,1.58,22.22Z"/>
      <path class="cls-4" d="M827.15,358.43c2.62,1.22,5.74,2.66,8.74,4.06-1.39,7.22-12.63,10.78-18.81,7.14,3.09-3.44,6.24-6.93,10.07-11.19Z"/>
      <path class="cls-4" d="M791.5,349.03c-.61,8.24-6.7,13.23-15.04,12.82,1.5-4.05,2.87-8.19,4.61-12.17.41-.94,2.08-1.89,3.14-1.86,2.35.06,4.68.73,7.29,1.21Z"/>
      <path class="cls-4" d="M748.5,363.65c.82-4.42,1.65-8.88,2.58-13.95,2.66-.41,5.73-.89,8.72-1.36,2.81,8.26-3.37,15.95-11.3,15.3Z"/>
      <path class="cls-4" d="M837.71,440.2c-3.34.9-6.92,1.86-10.53,2.83-1.6-7.74,2.2-14.61,9.54-17.09.32,4.6.63,9.08.99,14.26Z"/>
      <path class="cls-4" d="M762.73,361.79c1.33-4.72,2.56-9.1,3.9-13.85h8.98c1.57,8.08-4.67,14.63-12.88,13.85Z"/>
      <path class="cls-4" d="M846.02,418.65c2.22,4.31,4.32,8.39,6.74,13.1-3.06,2.11-6.28,4.33-9.52,6.55-3.71-5.96-2.6-13.63,2.77-19.65Z"/>
      <path class="cls-4" d="M829.89,375.4c3.24-2.97,6.19-5.85,9.36-8.45.7-.57,2.46-.59,3.29-.1,2.44,1.43,4.66,3.25,6.98,4.92-5.05,6.29-13.29,7.7-19.63,3.63Z"/>
      <path class="cls-4" d="M840.7,382.44c2.45-1.02,4.57-1.68,6.45-2.75,1.91-1.08,3.6-2.57,5.98-4.32,2.51,3,4.98,5.95,7.5,8.95-6.78,4.66-14.57,3.9-19.93-1.89Z"/>
      <path class="cls-4" d="M756.41,417.4c-1.95,1.87-3.81,3.38-5.34,5.18-1.52,1.79-2.71,3.86-4.29,6.16-2.95-1.13-5.87-2.25-8.72-3.35.44-7.61,10.27-11.54,18.35-7.99Z"/>
      <path class="cls-4" d="M851.46,408.73c3.69,2.72,7.34,5.41,11.69,8.61-1.94,3.23-4.07,6.77-6.27,10.43-5.75-5.31-7.51-11.83-5.42-19.04Z"/>
      <path class="cls-4" d="M741.26,411.45c-3.22,3.14-6.59,6.41-9.95,9.68.48.64.95,1.29,1.43,1.93-2.73-1.18-5.47-2.37-8.17-3.53.95-7.91,10.53-11.67,16.69-8.08Z"/>
      <path class="cls-4" d="M783.37,425.55c-1.91,2.66-4.17,4.88-5.27,7.57-1.73,4.21-4.14,5.22-8.11,3.35-1.27-.6-2.62-1-3.93-1.48,2.67-8.68,8.28-11.67,17.31-9.43Z"/>
      <path class="cls-4" d="M780.47,439.02c2.79-8.82,8.51-12.38,16.44-10.67-1.98,3.84-3.88,7.74-6.03,11.5-.37.65-1.85,1.12-2.7.98-2.59-.42-5.13-1.18-7.72-1.81Z"/>
      <path class="cls-4" d="M797.53,349.58c3.02.7,6.19,1.43,9.38,2.16-2.63,8.72-8.49,12.39-16.56,10.72,2.34-4.19,4.67-8.38,7.18-12.88Z"/>
      <path class="cls-17" d="M727.62,405.56c-3.08,3.07-6.41,6.39-9.73,9.71.45.6.9,1.19,1.36,1.79-2.82-1.41-5.65-2.83-8.43-4.22,2.29-7.86,11.83-10.84,16.8-7.28Z"/>
      <path class="cls-17" d="M804.02,365.16c2.71-3.71,5.46-7.46,8.68-11.88,2.48.79,5.58,1.77,8.63,2.73-1.7,7.98-9.26,11.71-17.31,9.14Z"/>
      <path class="cls-4" d="M810.68,430.11c-1.86,4.41-3.57,8.46-5.55,13.16-2.83-.4-6.03-.86-9.19-1.32.21-8.2,6.45-13.1,14.75-11.84Z"/>
      <path class="cls-4" d="M769.66,421.4c-3.24,4.3-6,7.98-9.04,12-.94-.24-2.39-.41-3.64-.99-1.65-.76-4.57-2.11-4.46-2.74.38-2.02,1.55-4.2,3.06-5.64,3.83-3.65,8.59-3.56,14.07-2.64Z"/>
      <path class="cls-17" d="M820.86,442.99c-.83.08-1.93.37-2.98.24-2.23-.28-4.43-.79-6.65-1.2.81-2.51,1.2-5.27,2.53-7.47,2.08-3.47,6.62-5.39,10.89-5.43-1.23,4.5-2.46,9.01-3.78,13.86Z"/>
      <path class="cls-11" d="M739.11,365.08c-.14-4.54-.28-9.08-.43-13.61,2.3-.33,4.6-.66,6.86-.99,1.55,6.45-.51,10.91-6.43,14.6Z"/>
      <path class="cls-11" d="M674.98,403.52c5.44,1.03,10.88,2.05,16.31,3.08-4.82,5.42-13.56,3.77-16.31-3.08Z"/>
      <path class="cls-11" d="M699.78,406.34c4.26-1.26,8.52-2.52,12.78-3.77-2.15,2.48-4.31,4.96-6.92,7.97-1.93-1.38-3.89-2.79-5.86-4.19Z"/>
      <path class="cls-11" d="M690.82,413.36c-1.09,2.22-2.18,4.44-3.27,6.66-1.97-1.39-3.94-2.79-5.91-4.18.1-.4.2-.8.31-1.19,2.96-.43,5.92-.86,8.88-1.29Z"/>
      <path class="cls-11" d="M712.5,402.62c.38-.27.76-.53,1.14-.8-.38.27-.76.53-1.14.8Z"/>
      <path class="cls-11" d="M673.9,402.9c.36.23.73.45,1.09.68-.36-.23-.73-.45-1.09-.68Z"/>
      <path class="cls-12" d="M539.35,276.06c9.24-21.16,19.09-42.09,27.54-63.56,8.01-20.35,12.85-41.71,16.41-63.31.26-1.56,1.19-3.02,1.8-4.52.68.36,1.36.72,2.04,1.08,0,0-.02-.02-.02-.02.75,1.87,1.18,3.97,2.31,5.58,16.78,24.19,29.33,50.47,37.24,78.73,6.14,21.95,11.53,44.17,15.97,66.52,2.69,13.54,2.93,27.58,4.26,41.39-1.18-1.7-2.19-3.55-3.56-5.07-3.47-3.86-7.09-7.57-10.65-11.35-2.04-11.87-3.62-23.83-6.21-35.58-4.91-22.2-11.89-43.71-24.03-63.18-4.77-7.65-10.15-14.8-18.26-20.29-1.04,5.18-1.89,9.87-2.94,14.52-5.05,22.35-12.42,43.84-23.75,63.85-6.05-1.6-12.1-3.2-18.15-4.8Z"/>
      <path class="cls-7" d="M632.7,321.53c3.56,3.77,7.19,7.49,10.65,11.35,1.37,1.53,2.38,3.37,3.56,5.07,0,9.34,0,18.68-.01,28.02-1.7-2.11-3.7-4.04-5.04-6.36-3-5.2-5.67-10.59-8.47-15.9-.23-7.39-.46-14.79-.69-22.18Z"/>
      <path class="cls-10" d="M672.07,374.69c-2.87,4.46-5.73,8.92-8.6,13.38.64-5.44,1.28-10.89,1.92-16.33,2.23.98,4.45,1.96,6.68,2.95Z"/>
      <path class="cls-12" d="M380.43,144.84c.61.66,1.66,1.25,1.78,1.99,7.24,45.06,22.41,87.4,43.64,127.67.07.13.05.31.08.47-.8.4-1.57.94-2.42,1.17-5.14,1.4-10.31,2.72-15.46,4.07-13.31-24.02-21.3-49.89-26.26-77.79-2.34,2.5-4.02,4.18-5.57,5.97-13.96,16.13-23.97,34.48-30.68,54.69-6.31,19.01-9.13,38.71-11.72,58.46-3.56,3.44-7.1,6.89-10.68,10.31-1.16,1.11-2.4,2.16-3.6,3.23.24-25.23,5.22-49.79,10.86-74.21,6.94-30.06,16.94-59.09,31.83-86.21,5.07-9.24,11.13-17.94,16.71-26.9.57-.92.99-1.94,1.48-2.91Z"/>
      <path class="cls-7" d="M319.55,335.07c1.2-1.07,2.44-2.12,3.6-3.23,3.57-3.42,7.12-6.87,10.68-10.31-.11,2.2-.35,4.4-.3,6.6.11,4.95.37,9.89.56,14.84-3.58,6.13-7.07,12.32-10.79,18.37-1.26,2.05-3.08,3.75-4.65,5.61,0-9.12-.06-18.24.01-27.35.01-1.51.57-3.01.87-4.52Z"/>
      <path class="cls-10" d="M302.26,387.2c-2.92-4.18-5.84-8.36-8.75-12.54,2.29-.97,4.57-1.94,6.86-2.92.63,5.15,1.26,10.3,1.9,15.46Z"/>
      <path class="cls-22" d="M804.43,488.64c-2.93,6.36-5.86,12.72-8.79,19.09-.96,1.38-1.92,2.76-2.88,4.14-2.95,3.42-5.89,6.84-8.84,10.26-1.36,1.13-2.73,2.26-4.09,3.39-2.94,1.98-5.88,3.95-8.81,5.93-.92.47-1.85.93-2.78,1.4-4.76,1.35-9.53,2.7-14.29,4.05-1.61.12-3.23.24-4.84.36-8.86-.42-17.71-.84-26.57-1.26-6.03-5.16-12.07-10.33-18.1-15.49.1-.3.2-.6.3-.91,1.71.28,3.41.7,5.13.81,19.22,1.18,38.26.5,56.71-5.85,13.97-4.81,25.69-12.89,35.31-24.09.66-.77,1.69-1.23,2.55-1.83Z"/>
      <path class="cls-21" d="M722.53,536c8.86.42,17.72.84,26.57,1.26,8.1,16.61,16.23,33.19,24.25,49.83,1.24,2.57,1.97,5.38,2.94,8.08-7.97-3.35-15.94-6.7-23.91-10.06-3.16-13.22-10.49-24.25-18.47-34.91-3.63-4.86-7.58-9.48-11.39-14.21Z"/>
      <path class="cls-4" d="M773.51,544.81c1.73,3.46,3.54,6.99,5.27,10.55,1.15,2.36.03,3.41-2.24,4.14-5.87,1.9-11.72-.38-14.56-5.92-1.01-1.97-1.94-3.99-3.42-7.04,3,0,5.29.2,7.54-.06,2.18-.25,4.32-.95,7.41-1.67Z"/>
      <path class="cls-17" d="M822.6,707.24c3.84.21,6.98.54,10.12.52,2.81-.02,5.29-.35,5.87,3.62.56,3.81,1.27,7.42-2.54,9.89-3.49,2.26-8.14,1.17-9.83-2.65-1.57-3.55-2.4-7.43-3.62-11.38Z"/>
      <path class="cls-4" d="M837.12,701.8c-8.83,4.07-15.9.7-17.58-6.58,3.98,0,8.2-.69,12.01.27,2.09.53,3.49,3.82,5.57,6.3Z"/>
      <path class="cls-4" d="M808.18,658.5c2.39.03,4.78.14,7.17.07,2.19-.06,4.38-.31,6.9-.5.78,2.27,1.59,4.62,2.38,6.93-8.14,4.1-15.8.97-16.48-6.45l.05-.04Z"/>
      <path class="cls-4" d="M779.05,587.97c4.01-.56,7.71-1.14,11.42-1.59,5.24-.64,3.96,4.29,5.99,6.53-8.31,4.01-15.01,1.89-17.4-4.94Z"/>
      <path class="cls-4" d="M768.25,564.91c3.65-.6,7.37-1.01,10.99-1.85,4.03-.94,4.6,2.13,5.5,4.53,1.19,3.18-1.75,3.35-3.55,3.8-6.08,1.51-11.61-1.53-12.94-6.48Z"/>
      <path class="cls-4" d="M799.03,635.04c4.16-.42,8.4-1.4,12.49-.99,1.5.15,2.8,3.54,3.82,5.62.13.27-1.85,2.22-2.99,2.38-7.9,1.09-11.75-1.08-13.32-7.01Z"/>
      <path class="cls-4" d="M826.67,670.68c.4,2.11.86,4.5,1.31,6.9-2.59.39-5.22,1.28-7.75,1.06-4.85-.44-7.6-3.48-7.92-7.95h14.35Z"/>
      <path class="cls-4" d="M816.36,683.37c4.02-.21,8.14-1,12.02-.35,1.53.25,2.7,3.64,3.58,5.78.15.36-1.89,2.27-3.07,2.44-6.79.98-12.06-2.53-12.54-7.87Z"/>
      <path class="cls-4" d="M791.03,581.3c-8.7,3.81-15.43,1.65-17.24-4.77,3.78-.62,7.56-1.41,11.39-1.82,4.74-.5,4.1,3.83,5.85,6.59Z"/>
      <path class="cls-4" d="M803.75,610.13c.74,1.84,1.61,4.02,2.46,6.13-6.91,4.8-14.34,2.39-16.87-4.99,4.6-.36,9.26-.73,14.4-1.14Z"/>
      <path class="cls-4" d="M794.94,623.32c4.11-.5,7.99-1.68,11.61-1.12,1.95.3,3.44,3.57,5.15,5.5-6.47,5.21-15.55,2.46-16.76-4.38Z"/>
      <path class="cls-4" d="M803.81,647.03c3.71-.3,7.46-.4,11.14-.94,3.99-.59,4.14,2.58,4.44,4.77.15,1.08-1.71,3.27-3,3.59-6.07,1.51-12-2.36-12.58-7.42Z"/>
      <path class="cls-11" d="M753.95,536.9c4.77-1.35,9.53-2.7,14.29-4.05.13.62.2,1.27.41,1.87,2.14,6.11-.05,9.09-6.57,7.69-2.97-.64-5.43-3.6-8.13-5.5Z"/>
      <path class="cls-17" d="M802.1,604.26c-8.37,4.43-15.45,2.2-17.7-4.35,4.06-.59,8.24-1.9,12.25-1.49,1.92.2,3.51,3.65,5.45,5.84Z"/>
      <path class="cls-4" d="M808.14,658.55c-.13-.14-.26-.27-.38-.41.14.12.29.24.43.37,0,0-.05.04-.05.04Z"/>
      <path class="cls-14" d="M735.95,375.95c-.75,1.87-1.49,3.74-2.24,5.6-3.17-1.13-6.39-2.14-9.49-3.44-3.23-1.35-6.07-2.37-9.97-1.47-2.37.55-5.57-2.53-8.4-3.99-1.11-3.97-.72-7.61,2.85-10.18,3.59-2.58,7.15-1.71,10.53.63,1.87,9.11,9.49,10.71,16.72,12.83Z"/>
      <path class="cls-14" d="M232.45,381.57c-.86-1.88-1.72-3.76-2.58-5.64,1.37-.4,2.72-.85,4.1-1.2,6.27-1.57,11.21-4.57,12.61-11.48,3.57-2.65,7.34-3.39,11.03-.49,3.75,2.94,3.59,6.84,1.96,10.88-3.04,3.05-6.39,4.46-10.75,2.68-1.09-.44-2.71,0-3.95.45-4.18,1.5-8.3,3.19-12.44,4.8Z"/>
      <path class="cls-9" d="M170.28,507.61c-2.96-6.35-5.92-12.7-8.87-19.04,2.03,1.92,4.15,3.76,6.06,5.79,12.82,13.6,28.92,20.91,47,24.07,8.3,1.45,16.74,2.53,25.15,2.82,7.06.25,14.17-.88,22.63-1.5-6.9,5.89-12.92,11.03-18.93,16.16-8.9.45-17.8.9-26.7,1.35-1.4-.11-2.81-.21-4.21-.32-4.79-1.31-9.58-2.62-14.38-3.92-1.28-.63-2.56-1.25-3.84-1.88-2.9-1.96-5.8-3.91-8.7-5.87-1.08-1.01-2.17-2.01-3.25-3.01-3.02-3.48-6.04-6.97-9.06-10.45-.97-1.39-1.93-2.79-2.9-4.18Z"/>
      <path class="cls-21" d="M216.62,537.25c8.9-.45,17.8-.9,26.7-1.35-6.42,8.58-13.45,16.78-19.07,25.85-4.5,7.25-7.29,15.56-10.84,23.41-8.06,3.36-16.12,6.71-24.17,10.07,8.18-17.13,16.36-34.27,24.52-51.41,1.02-2.15,1.91-4.37,2.86-6.56Z"/>
      <path class="cls-4" d="M206.22,547.12c-1.63,11.16-10.91,16.28-20.03,10.37,2.04-4.13,4.13-8.35,6.1-12.32,4.93.69,9.43,1.32,13.93,1.95Z"/>
      <path class="cls-17" d="M143.2,707.79c-1,3.42-1.78,6.84-3.01,10.07-1.19,3.12-3.78,5.36-7.09,4.22-2.38-.82-5.38-2.98-5.94-5.11-.67-2.54.83-5.74,1.73-8.55.16-.49,2-.58,3.07-.61,3.46-.07,6.93-.03,11.25-.03Z"/>
      <path class="cls-4" d="M146.62,694.67c-1.64,6.44-7.74,10.48-13.51,9.05-1.09-.27-2.74-2.33-2.52-3.06.63-2.08-.37-5.68,3.77-5.46,2.08.11,4.17.14,6.25.05,1.87-.08,3.73-.35,6.01-.58Z"/>
      <path class="cls-4" d="M162.53,610.06c4.85.44,9.34.85,13.81,1.25-1.05,5.76-9.8,10.06-14.64,6.47-3.79-2.81.16-5.46.84-7.72Z"/>
      <path class="cls-4" d="M162.48,646.89c-1.24,5.71-9.14,9.92-14.61,7.18-.86-.43-1.68-2.73-1.27-3.56.83-1.69,2.4-4.08,3.85-4.21,3.98-.35,8.05.32,12.03.59Z"/>
      <path class="cls-4" d="M150.48,682.74c-2.04,6.18-8,9.99-13.61,8.39-1.16-.33-2.58-2.8-2.37-4.04.26-1.58,1.9-3.98,3.19-4.15,4.11-.54,8.33-.2,12.79-.2Z"/>
      <path class="cls-4" d="M171.72,622.79c-2.63,7.48-9.08,9.56-16.75,6.1,1.84-6.74,1.83-6.68,8.62-6.13,2.53.2,5.1.03,8.13.03Z"/>
      <path class="cls-4" d="M197.96,564.01c-2.59,7.62-10.29,9.79-16.92,5.45,1.35-6.47,1.77-6.76,7.99-5.6,1.41.26,2.82.7,4.24.74,1.36.04,2.74-.33,4.69-.59Z"/>
      <path class="cls-4" d="M192.26,576.39c-1.83,5.64-8.38,8.87-14.2,6.32-1.04-.46-2.36-2.82-2.02-3.4,1.05-1.79,2.8-4.37,4.35-4.43,3.96-.14,7.96.93,11.87,1.5Z"/>
      <path class="cls-4" d="M158.13,658.49c-1.93,6.1-7.49,9.66-12.69,8.31-1.32-.34-3.39-2.13-3.25-2.97.35-2.26.28-5.45,4.1-5.36,3.78.08,7.56.02,11.84.02Z"/>
      <path class="cls-4" d="M186.97,587.74c-2.52,6.9-9.88,9.23-16.72,5.39,1.17-6.79,1.92-7.24,8.08-6.02,2.7.54,5.54.42,8.64.62Z"/>
      <path class="cls-4" d="M166.92,598.25c5.65.54,10.01.96,14.88,1.42-.1,4.09-3.8,5.27-7.27,6.6-.71.27-1.62.28-2.39.14-2.26-.42-4.49-.98-6.74-1.49.54-2.38,1.08-4.76,1.52-6.68Z"/>
      <path class="cls-11" d="M198.03,533c4.79,1.31,9.58,2.62,14.38,3.92-4.95,6.3-9.96,7.35-17.24,3.35.94-2.39,1.9-4.83,2.86-7.27Z"/>
      <path class="cls-17" d="M154.16,670.68c-2.3,6.6-7.39,9.59-13.87,7.99-.92-.23-2.13-1.89-2.09-2.83.08-1.81.97-3.58,1.47-5.16h14.49Z"/>
      <path class="cls-4" d="M152.4,634.12c5.32.29,9.71.54,14.8.82-1.12,4.01-3.75,6.06-7.43,7.11-.6.17-1.29.19-1.92.11-2.31-.29-4.61-.64-6.92-.97.52-2.54,1.05-5.08,1.46-7.07Z"/>
      <path class="cls-13" d="M632.7,321.53c.23,7.39.46,14.79.69,22.18-4.42-4.35-8.75-8.81-13.29-13.03-16.11-14.96-34.93-25.42-55.43-33.05-4.48-1.67-8.94-3.36-13.41-5.05,2.08-3.91,4.17-7.82,6.25-11.73,11.33-20.01,18.7-41.51,23.75-63.85,1.05-4.65,1.9-9.34,2.94-14.52,8.11,5.49,13.5,12.64,18.26,20.29,12.14,19.48,19.12,40.99,24.03,63.18,2.6,11.74,4.18,23.71,6.21,35.58Z"/>
      <path class="cls-13" d="M334.09,342.97c-.2-4.94-.45-9.89-.56-14.84-.05-2.2.19-4.4.3-6.6,2.59-19.75,5.41-39.45,11.72-58.46,6.71-20.21,16.72-38.56,30.68-54.69,1.55-1.79,3.23-3.46,5.57-5.97,4.96,27.89,12.95,53.76,26.26,77.79,2.19,4.13,4.39,8.27,6.58,12.4-15.3,6.92-30.95,13.15-45.78,20.95-13.57,7.14-24.86,17.61-34.76,29.41Z"/>
      <path class="cls-16" d="M430.4,556.68c-20.04-20.5-45.12-31.01-72.56-37.28-14.69-3.36-29.27-7.55-42.11-15.93-14.14-9.22-23.04-21.98-25.22-39.01,1.39,1.02,2.83,1.96,4.16,3.06,10.72,8.85,23.84,10.51,36.89,12.32,14.93,2.07,29.81,4.07,44.06,9.5,31.3,11.93,46.19,37.02,54.77,67.33Z"/>
      <path class="cls-16" d="M675.84,463.3c-2.81,19.76-13.12,34.67-30.99,43.06-12.4,5.82-25.64,10.41-38.98,13.58-26.51,6.29-50.42,16.92-70,36.26,1.66-5.15,3.05-10.4,5.03-15.43,9.56-24.24,24.95-43.33,50.43-51.53,13.77-4.43,28.29-6.78,42.61-9.21,15.26-2.6,30.62-4.4,41.9-16.73Z"/>
      <path class="cls-21" d="M486.31,682.68c-10.97-.12-17.95-2.96-23.32-8.17-7.11-6.89-13.47-14.58-19.81-22.21-1.09-1.32-1.11-4.29-.49-6.12,2.31-6.83,13.45-14.09,20.68-13.67,1.18.07,2.41,1.24,3.41,2.13,3.47,3.09,6.71,6.46,10.31,9.4,3.86,3.14,8.12,3.03,11.93-.11,3.58-2.95,6.81-6.34,10.28-9.42.99-.88,2.47-2.16,3.44-1.95,8.34,1.75,16.2,4.46,20.33,12.9,1.28,2.61,1.4,4.93-.5,7.58-6.41,8.93-13.05,17.72-22.5,23.56-5.05,3.12-10.94,4.87-13.77,6.08Z"/>
      <path class="cls-23" d="M482.27,446.81c-2.09-11.98-4.54-23.91-6.17-35.95-2.19-16.22-3.92-32.51-5.52-48.8-.98-9.94-.94-19.9,2.34-29.55,1.94-5.71,5.27-8.44,10.34-8.41,5.03.03,8.31,2.82,10.24,8.54,4.13,12.26,3.17,24.82,1.57,37.23-3.12,24.18-6.84,48.28-10.35,72.4-.23,1.56-.76,3.08-1.16,4.62-.43-.03-.87-.05-1.3-.08Z"/>
      <path class="cls-11" d="M675.84,463.3c-11.28,12.33-26.64,14.13-41.9,16.73-14.32,2.44-28.84,4.78-42.61,9.21-25.48,8.2-40.86,27.29-50.43,51.53-1.98,5.02-3.37,10.28-5.03,15.43,0,0,.06-.05.06-.05-.28.31-.57.62-.85.93-.27.53-.54,1.06-.82,1.59-.55-.07-1.09-.14-1.64-.2.6-7.3.57-14.72,1.91-21.88,6.7-35.9,30.21-55.34,64.46-62.1,16.24-3.21,33.17-2.94,49.8-4.1,9.8-.68,18.99-2.95,26.97-8.97l-.06-.1c.04.67.08,1.33.12,2Z"/>
      <path class="cls-11" d="M430.4,556.68c-8.58-30.31-23.47-55.4-54.77-67.33-14.25-5.43-29.13-7.43-44.06-9.5-13.04-1.81-26.17-3.48-36.89-12.32-1.33-1.09-2.77-2.04-4.16-3.06,0,0,.08.06.08.06.05-.71.1-1.43.14-2.14,12.53,7.96,26.65,8.52,40.81,8.62,20.09.13,39.71,2.17,58.28,10.82,36.08,16.8,44.48,51.28,42.83,75.6-.03.46-.24.91-.47,1.73-.71-.98-1.26-1.72-1.8-2.47Z"/>
      <path class="cls-23" d="M277.6,500.87c23.01,17.68,48.14,29.03,72.78,42.33-2.64.68-5.25,1.69-7.94,2-18.29,2.11-35.22-1.57-49.85-13.07-9.48-7.45-15.22-17.13-14.98-31.26Z"/>
      <path class="cls-23" d="M615.77,542.64c24.45-12.87,49.67-24.05,72.22-41.56,1.09,7.62-.96,13.43-4.11,18.83-8.51,14.57-22.29,21.3-38.05,24.59-9.98,2.08-20.04,2.11-30.05-1.85Z"/>
      <path class="cls-23" d="M505.36,440.14c-1.05-18.72,12.57-41.88,27.95-49,2.44-1.13,5.14-1.96,7.8-2.32,4.03-.55,7.24,1.19,9.17,4.85,1.83,3.49,1.42,6.94-1.07,9.91-1.42,1.69-3.14,3.34-5.06,4.39-14.67,7.93-28.3,17.13-38.79,32.18Z"/>
      <path class="cls-23" d="M460.04,439.25c-9.62-13.14-21.68-22.47-35.57-29.63-2.66-1.37-5.11-3.36-7.23-5.49-3.02-3.02-3.54-6.81-1.49-10.62,2.05-3.82,5.56-5.64,9.68-4.54,4.11,1.1,8.51,2.42,11.85,4.91,14.11,10.52,21.85,24.82,23.47,42.39.04.48.06.97,0,1.44-.03.28-.24.54-.71,1.54Z"/>
      <path class="cls-9" d="M532.18,719.42c-2.97,3.8-5.93,7.61-8.9,11.41-4.85.04-9.72-.18-14.55.17-9.44.68-16.06-3.23-20.15-11.62-1.97-4.03-3.82-8.12-5.57-11.86-2.71,5.36-4.96,10.86-8.17,15.73-1.82,2.76-4.96,5.85-7.93,6.38-6.36,1.15-13.01.7-19.54.97-1.44.06-2.87.39-4.3.6-3.13-3.95-6.26-7.9-9.39-11.85,6.24,1.29,12.43,3.12,18.73,3.76,16.23,1.65,24.57-4.74,29.37-21.74.24-.86.54-1.7,1.09-3.39,1.63,4.14,2.74,7.55,4.28,10.75,6.75,13.98,13.8,15.69,29.14,14.02,5.35-.58,10.6-2.18,15.89-3.32Z"/>
      <path class="cls-10" d="M251.05,445.11c4.78.32,9.56.65,14.34.97-10.01,12.52-21.16,23.69-36.16,30.25,1.18-3.71,2.24-7.46,3.58-11.11.56-1.53,1.36-3.43,2.63-4.16,3.48-2,4.8-4.86,4.71-8.64,3.63-2.44,7.27-4.87,10.9-7.31Z"/>
      <path class="cls-10" d="M700.74,446.2c4.91-.36,9.81-.72,14.72-1.08,3.64,1.98,7.28,3.96,10.91,5.94-.7,3.31-.76,6.64,2.35,8.71,6,3.99,6.12,10.63,7.92,16.54-14.87-6.58-25.97-17.64-35.9-30.11Z"/>
      <path class="cls-23" d="M331.33,562.94c-10.08,9.17-21.41,12.67-34.26,10.22-8.48-1.61-14.66-6.53-17.66-14.76,8.7,2.17,17.04,5.32,25.59,6.08,8.44.75,17.1-.9,26.33-1.55Z"/>
      <path class="cls-23" d="M686.16,557.63c-2.69,9.26-9.16,14.14-17.87,15.67-12.54,2.2-23.58-1.38-32.94-10.39,17.44,3.04,34.51,3.64,50.81-5.28Z"/>
      <path class="cls-8" d="M760.81,459.55c6.81,8.97,13.62,17.93,20.43,26.9-11.29.08-22.3-1.46-32.89-5.52-1.92-2.29-3.83-4.57-5.75-6.86,0-.24-.01-.47-.02-.71,7.74-2.42,13.19-7.84,18.23-13.82ZM770.65,479.04c-2.02-2.63-3.74-5.12-5.75-7.35-.69-.76-2.25-1.42-3.17-1.18-4.03,1.05-7.97,2.45-11.9,3.7,4.58,8.08,14.48,10.72,20.81,4.82Z"/>
      <path class="cls-8" d="M184.46,486.46c6.9-8.99,13.8-17.98,20.7-26.97.83,1.03,1.66,2.07,2.49,3.1-.63,1.05-1.26,2.11-2.5,4.2,3.23.59,5.76,1.05,8.3,1.52l-.06-.04c.37.25.73.5,1.1.76,2.6,1.47,5.19,2.94,7.79,4.42-1.66,2.55-3.32,5.11-4.98,7.66-10.6,3.89-21.58,5.47-32.83,5.36ZM194.96,479.44c8.7,5.32,18.04,2.36,21.14-5.45-4.45-1.23-8.96-2.48-14.11-3.91-1.97,2.62-4.41,5.87-7.04,9.36Z"/>
      <path class="cls-14" d="M217.29,481.1c1.66-2.55,3.32-5.11,4.97-7.66,5.11-4.43,6.39-11.5,3.19-17.72.02-4.12,1.15-7.62,5.73-8.57,4.45-.92,7.12,1.57,8.96,5.28.09,3.79-1.23,6.64-4.71,8.64-1.27.73-2.07,2.63-2.63,4.16-1.34,3.65-2.41,7.4-3.58,11.11-3.98,1.59-7.96,3.18-11.94,4.77Z"/>
      <path class="cls-7" d="M414.63,292.61c-2.19-4.13-4.39-8.27-6.58-12.4,5.16-1.35,10.32-2.67,15.46-4.07.85-.23,1.62-.77,2.42-1.17,2.7,4.52,5.39,9.04,8.09,13.56-6.46,1.36-12.93,2.71-19.39,4.07Z"/>
      <path class="cls-7" d="M557.51,280.86c-2.08,3.91-4.17,7.82-6.25,11.73-6.53-1.34-13.06-2.67-19.59-4.01,2.56-4.17,5.13-8.35,7.69-12.52,6.05,1.6,12.1,3.2,18.15,4.8Z"/>
      <path class="cls-14" d="M742.58,473.37c0,.24.01.47.02.71-.43,1.39-.86,2.78-1.29,4.17-1.55-.65-3.11-1.29-4.66-1.94-1.79-5.91-1.92-12.55-7.92-16.54-3.12-2.07-3.05-5.4-2.35-8.71,2.35-3.18,5.32-5.14,9.34-3.67,3.76,1.37,4.96,4.58,4.91,8.36-3.58,3.62-2.93,7.56-.91,11.63.98,1.98,1.91,3.99,2.86,5.99Z"/>
      <path class="cls-21" d="M741.31,478.24c.43-1.39.86-2.78,1.29-4.17,1.92,2.29,3.83,4.57,5.75,6.86-1.95-.7-3.89-1.41-5.84-2.11-.35-.17-.7-.33-1.06-.5l-.15-.08Z"/>
      <path class="cls-16" d="M290.75,462.38c-.05.71-.1,1.43-.14,2.14-.23-.58-.46-1.15-.69-1.73.33.05.58-.07.76-.34l.07-.07Z"/>
      <path class="cls-11" d="M290.67,462.45c-.18.28-.43.39-.76.34.04-.4.08-.8.11-1.21.22.29.43.58.65.86Z"/>
      <path class="cls-14" d="M741.46,478.32c.35.17.7.33,1.06.5-.35-.17-.7-.33-1.06-.5Z"/>
      <path class="cls-11" d="M675.77,461.41c.12-.03.24-.08.36-.09.04,0,.1.07.15.12-.19-.04-.37-.07-.56-.11,0,0,.05.09.05.09Z"/>
      <path class="cls-16" d="M535.08,557.08c.28-.31.57-.62.85-.93-.28.31-.57.62-.85.93Z"/>
      <path class="cls-7" d="M443.06,731.19c1.43-.21,2.86-.54,4.3-.6,6.53-.27,13.17.17,19.54-.97,2.98-.54,6.12-3.63,7.93-6.38,3.21-4.87,5.46-10.37,8.17-15.73,1.75,3.74,3.6,7.83,5.57,11.86,4.09,8.39,10.71,12.31,20.15,11.62,4.83-.35,9.7-.13,14.55-.17-8.22,8.2-18.5,11.94-29.72,13.12-16.6,1.75-32.74.61-46.93-9.62-1.28-.92-2.38-2.09-3.56-3.15Z"/>
      <path class="cls-1" d="M170.28,507.61c.97,1.39,1.93,2.79,2.9,4.18-1.98,2.63-3.93,5.27-5.94,7.88-1.97,2.56-1.09,3.76,1.72,4.87,5.01,1.98,8.99-.8,13.28-2.3,1.08,1,2.17,2.01,3.25,3.01-12.46,21.31-24.93,42.63-37.38,63.94-2.83,4.85-9.15,7.05-14.16,4.91-5.74-2.45-8.95-8.63-6.43-14.16,3.39-7.42,7.33-14.62,11.49-21.65,9.47-16.01,19.2-31.86,28.86-47.75.65-1.08,1.6-1.98,2.41-2.96ZM151.32,574.27c-4.94-.58-9.13-1.14-13.33-1.51-.8-.07-2.08.41-2.43,1.04-1.55,2.76-3.37,5.53-4.09,8.54-.8,3.35.7,6.29,4.23,7.65,3.53,1.36,6.46.12,8.33-2.78,2.66-4.12,4.85-8.55,7.29-12.94ZM156.44,537.22c7.78,5.49,18.32,1.21,20.32-7.87-3.02-.16-6.53.61-8.94-.67-5.06-2.69-6.82.1-8.68,3.74-.79,1.54-1.69,3.03-2.69,4.8ZM159.41,559.2c-4.21-.5-8.2-1.09-12.21-1.37-1.17-.08-2.95.36-3.51,1.19-1.83,2.7-3.23,5.69-4.78,8.56,8.58,4.51,17.1.69,20.5-8.38ZM147.66,552.19c7.78,4.96,18.21.46,20.15-7.61-4.67-.71-9.39-1.42-14.6-2.21-1.71,3.02-3.64,6.43-5.55,9.82Z"/>
      <path class="cls-10" d="M225.45,455.72c3.2,6.22,1.92,13.29-3.19,17.72-2.59-1.47-5.19-2.94-7.79-4.41-.37-.25-.74-.5-1.1-.76,0,0,.06.04.06.04-1.93-1.91-3.86-3.81-5.79-5.72-.83-1.03-1.66-2.06-2.49-3.1-1.65-3.5-3.3-7.01-4.95-10.51,7.88,4.27,16.38,6.2,25.25,6.74Z"/>
      <path class="cls-9" d="M587.15,145.74c-.68-.36-1.36-.72-2.04-1.08.68.36,1.36.72,2.04,1.08Z"/>
      <path class="cls-1" d="M779.83,525.52c1.36-1.13,2.73-2.26,4.09-3.39,5.34,2.15,10.64,5.36,16.92.21-2.76-3.58-5.42-7.02-8.08-10.47.96-1.38,1.92-2.76,2.88-4.14,6.36,9.79,13.01,19.41,18.99,29.43,7.98,13.35,15.56,26.93,23.05,40.57,3.4,6.19,1,13.05-4.94,15.94-5.8,2.82-11.29,1.36-14.86-4.67-5.89-9.93-11.18-20.21-17.11-30.11-6.75-11.25-13.94-22.25-20.93-33.35ZM814.78,574.46c2.44,4.42,4.59,9.04,7.41,13.2,2.73,4.03,7.28,3.88,10.68.41,3.31-3.37,2.09-6.78.11-10-1.25-2.02-3.04-5.07-4.75-5.18-4.23-.26-8.54.9-13.45,1.57ZM806.71,559.28c2.54,6.94,9.23,11.38,15.98,10.36,3.15-.47,4.81-1.76,2.76-5.1-1.55-2.52-3.02-5.09-4.05-6.84-5.49.59-9.98,1.07-14.69,1.58ZM818.67,552.32c-2.21-3.67-4.26-7.06-6.2-10.26-2.66.64-4.94,1.42-7.28,1.69-2.39.28-4.83.06-7.35.06,1.72,7.99,13.02,13.79,20.83,8.51ZM809.68,537.62c-1.88-3.15-3.49-6.03-5.3-8.78-.44-.67-1.6-1.4-2.3-1.29-4.29.67-8.55,1.58-12.82,2.41,3.02,8.36,11.51,11.87,20.43,7.66Z"/>
      <path class="cls-10" d="M742.58,473.37c-.95-2-1.87-4.01-2.86-5.99-2.02-4.07-2.68-8.01.91-11.63,8.82-.43,17.14-2.68,24.98-6.75-1.6,3.52-3.2,7.03-4.8,10.55-5.03,5.98-10.49,11.4-18.23,13.82Z"/>
      <path class="cls-11" d="M792.76,511.87c2.66,3.44,5.32,6.89,8.08,10.47-6.28,5.15-11.59,1.94-16.92-.21,2.95-3.42,5.9-6.84,8.84-10.26Z"/>
      <path class="cls-11" d="M182.24,522.24c-4.29,1.5-8.27,4.28-13.28,2.3-2.81-1.11-3.69-2.32-1.72-4.87,2.01-2.61,3.96-5.25,5.94-7.88,3.02,3.49,6.04,6.97,9.06,10.45Z"/>
      <path class="cls-4" d="M770.65,479.04c-6.33,5.89-16.23,3.26-20.81-4.82,3.93-1.26,7.87-2.65,11.9-3.7.92-.24,2.48.41,3.17,1.18,2.01,2.23,3.73,4.72,5.75,7.35Z"/>
      <path class="cls-4" d="M194.96,479.44c2.62-3.49,5.07-6.74,7.04-9.36,5.14,1.43,9.66,2.68,14.11,3.91-3.1,7.81-12.44,10.77-21.14,5.45Z"/>
      <path class="cls-11" d="M207.64,462.58c1.93,1.91,3.86,3.81,5.79,5.72-2.53-.46-5.07-.93-8.29-1.52,1.25-2.09,1.87-3.15,2.5-4.2Z"/>
      <path class="cls-11" d="M213.38,468.27c.37.25.74.51,1.1.76-.37-.25-.74-.51-1.1-.76Z"/>
      <path class="cls-17" d="M151.32,574.27c-2.44,4.39-4.63,8.82-7.29,12.94-1.87,2.9-4.8,4.14-8.33,2.78-3.54-1.36-5.03-4.3-4.23-7.65.72-3.01,2.54-5.78,4.09-8.54.35-.63,1.63-1.11,2.43-1.04,4.21.36,8.39.93,13.33,1.51Z"/>
      <path class="cls-4" d="M156.44,537.22c1-1.77,1.9-3.26,2.69-4.8,1.86-3.64,3.62-6.43,8.68-3.74,2.42,1.28,5.93.51,8.94.67-1.99,9.08-12.53,13.36-20.32,7.87Z"/>
      <path class="cls-4" d="M159.41,559.2c-3.4,9.07-11.92,12.9-20.5,8.38,1.56-2.87,2.96-5.86,4.78-8.56.57-.83,2.34-1.27,3.51-1.19,4.01.28,8,.87,12.21,1.37Z"/>
      <path class="cls-17" d="M147.66,552.19c1.91-3.38,3.84-6.8,5.55-9.82,5.21.79,9.93,1.5,14.6,2.21-1.95,8.07-12.38,12.57-20.15,7.61Z"/>
      <path class="cls-17" d="M814.78,574.46c4.9-.67,9.22-1.84,13.45-1.57,1.71.11,3.51,3.16,4.75,5.18,1.98,3.22,3.2,6.63-.11,10-3.4,3.47-7.96,3.61-10.68-.41-2.82-4.16-4.96-8.77-7.41-13.2Z"/>
      <path class="cls-4" d="M806.71,559.28c4.71-.51,9.2-.99,14.69-1.58,1.04,1.75,2.51,4.32,4.05,6.84,2.05,3.34.4,4.63-2.76,5.1-6.75,1.02-13.45-3.42-15.98-10.36Z"/>
      <path class="cls-4" d="M818.67,552.32c-7.81,5.28-19.1-.52-20.83-8.51,2.52,0,4.97.22,7.35-.06,2.34-.27,4.62-1.05,7.28-1.69,1.94,3.21,3.98,6.6,6.2,10.26Z"/>
      <path class="cls-4" d="M809.68,537.62c-8.92,4.21-17.4.71-20.43-7.66,4.27-.83,8.52-1.74,12.82-2.41.7-.11,1.86.62,2.3,1.29,1.81,2.75,3.42,5.63,5.3,8.78Z"/>
    </g>
  </g>
</svg>